<?xml version="1.0" standalone="no"?>
<!DOCTYPE svg PUBLIC "-//W3C//DTD SVG 20010904//EN"
 "http://www.w3.org/TR/2001/REC-SVG-20010904/DTD/svg10.dtd">
<svg version="1.0" xmlns="http://www.w3.org/2000/svg"
 width="512.000000pt" height="512.000000pt" viewBox="0 0 512.000000 512.000000"
 preserveAspectRatio="xMidYMid meet">
<metadata>
Created by potrace 1.14, written by Peter Selinger 2001-2017
</metadata>
<g transform="translate(0.000000,512.000000) scale(0.100000,-0.100000)"
fill="#000000" stroke="none">
<path d="M45 3163 c-42 -6 -56 -23 -19 -23 16 0 35 5 42 12 9 9 18 9 37 0 36
-17 55 -14 25 3 -26 15 -32 15 -85 8z"/>
<path d="M374 3005 c-18 -15 -18 -15 5 -13 14 2 26 9 29 16 5 17 -10 15 -34
-3z"/>
<path d="M970 2949 c0 -5 5 -7 10 -4 6 3 10 8 10 11 0 2 -4 4 -10 4 -5 0 -10
-5 -10 -11z"/>
<path d="M188 2943 c12 -2 30 -2 40 0 9 3 -1 5 -23 4 -22 0 -30 -2 -17 -4z"/>
<path d="M2088 2933 c6 -2 18 -2 25 0 6 3 1 5 -13 5 -14 0 -19 -2 -12 -5z"/>
<path d="M73 2913 c9 -2 25 -2 35 0 9 3 1 5 -18 5 -19 0 -27 -2 -17 -5z"/>
<path d="M915 2910 c3 -5 12 -10 20 -10 8 0 17 5 20 10 4 6 -5 10 -20 10 -15
0 -24 -4 -20 -10z"/>
<path d="M1665 2890 c27 -12 35 -12 35 0 0 6 -12 10 -27 9 -25 0 -26 -1 -8 -9z"/>
<path d="M2020 2890 c20 -13 33 -13 25 0 -3 6 -14 10 -23 10 -15 0 -15 -2 -2
-10z"/>
<path d="M4078 2873 c7 -3 16 -2 19 1 4 3 -2 6 -13 5 -11 0 -14 -3 -6 -6z"/>
<path d="M1325 2850 c3 -5 13 -10 21 -10 8 0 14 5 14 10 0 6 -9 10 -21 10 -11
0 -17 -4 -14 -10z"/>
<path d="M4755 2810 c-11 -5 -38 -9 -60 -10 -29 0 -36 -3 -25 -10 18 -10 160
9 160 22 0 10 -49 9 -75 -2z"/>
<path d="M1544 2789 c-4 -6 -20 -8 -40 -4 -31 5 -34 4 -34 -20 0 -30 16 -32
50 -5 16 12 41 20 67 20 23 0 45 5 48 10 4 6 -11 10 -39 10 -25 0 -48 -5 -52
-11z"/>
<path d="M2080 2790 c0 -5 7 -10 15 -10 8 0 15 5 15 10 0 6 -7 10 -15 10 -8 0
-15 -4 -15 -10z"/>
<path d="M1405 2770 c-3 -5 3 -10 14 -10 11 0 23 5 26 10 3 6 -3 10 -14 10
-11 0 -23 -4 -26 -10z"/>
<path d="M1760 2750 c-12 -8 -10 -10 8 -10 13 0 20 4 17 10 -7 12 -6 12 -25 0z"/>
<path d="M1885 2750 c27 -12 43 -12 25 0 -8 5 -22 9 -30 9 -10 0 -8 -3 5 -9z"/>
<path d="M4543 2753 c9 -2 23 -2 30 0 6 3 -1 5 -18 5 -16 0 -22 -2 -12 -5z"/>
<path d="M4886 2749 c27 -11 96 -11 90 0 -3 5 -29 8 -57 8 -33 -1 -45 -3 -33
-8z"/>
<path d="M5036 2724 c-3 -8 -6 -17 -6 -18 0 -1 19 0 42 2 41 4 39 12 -8 26
-15 5 -24 2 -28 -10z"/>
<path d="M1403 2662 c-18 -4 -55 -20 -82 -37 -39 -23 -55 -41 -71 -79 -40 -91
-62 -171 -67 -249 -6 -75 -24 -123 -40 -102 -21 27 -199 -6 -293 -54 -29 -15
-24 -149 5 -137 22 8 28 -12 7 -23 -11 -6 -44 -15 -73 -20 -92 -16 -127 -35
-210 -114 -45 -42 -85 -77 -89 -77 -4 0 -13 -6 -19 -14 -9 -11 -9 -15 0 -18 8
-3 5 -14 -8 -35 -15 -25 -22 -29 -36 -22 -21 12 -22 5 -3 -14 10 -9 12 -24 7
-48 l-7 -34 -86 -2 c-82 -1 -88 0 -103 23 -8 13 -20 24 -26 24 -8 0 -7 -5 1
-15 7 -9 11 -18 8 -21 -6 -5 -56 50 -73 81 -6 10 -17 16 -25 13 -11 -3 -9 -9
8 -23 27 -24 29 -45 3 -45 -10 0 -24 -7 -32 -16 -7 -8 -21 -13 -31 -11 -15 4
-18 1 -12 -16 5 -20 5 -20 -7 -6 -8 9 -22 19 -31 22 -16 6 -18 -3 -18 -93 0
-80 3 -100 14 -100 8 0 18 5 22 11 4 7 21 9 40 6 23 -4 39 -1 49 9 20 20 19
23 -5 17 -11 -3 -20 0 -20 6 0 7 20 11 49 11 29 0 51 5 53 12 3 7 12 9 22 5 9
-4 14 -12 11 -17 -4 -7 2 -9 20 -4 24 6 26 5 19 -20 -7 -28 12 -38 22 -11 4 8
15 15 25 15 10 0 19 5 19 10 0 6 -7 10 -15 10 -20 0 -65 22 -65 32 0 4 7 8 16
8 11 0 14 6 9 21 -7 23 -9 23 100 7 18 -3 20 -10 17 -58 -4 -95 16 -187 50
-226 16 -18 42 -40 56 -47 25 -11 27 -17 25 -67 -13 -363 -14 -479 -4 -590 8
-87 16 -127 26 -132 11 -7 13 -45 11 -208 l-3 -200 54 0 c53 0 55 1 49 23 -3
13 -2 36 3 52 9 34 30 35 69 5 13 -11 40 -24 60 -31 20 -7 44 -20 53 -31 15
-17 41 -18 448 -18 277 0 431 4 431 10 0 5 18 13 40 16 22 4 38 9 36 13 -2 3
12 22 31 41 20 19 31 28 27 20 -10 -18 -34 -82 -34 -92 0 -5 50 -8 110 -8 61
0 110 4 110 9 0 5 12 14 28 19 l27 10 -30 2 c-28 1 -29 2 -11 15 10 7 15 18
12 24 -8 13 17 170 33 198 25 48 32 24 28 -104 -2 -71 -7 -138 -11 -150 l-8
-23 351 0 c344 0 351 0 351 20 0 23 18 27 26 5 4 -8 10 -15 15 -15 16 0 9 30
-11 47 -35 31 -25 44 33 43 69 -2 124 9 138 26 8 10 8 14 0 14 -6 0 -11 5 -11
10 0 6 9 10 21 10 11 0 17 5 14 10 -3 6 -15 10 -26 10 -22 0 -26 25 -4 34 22
8 19 38 -3 34 -21 -3 -52 18 -52 36 1 10 80 76 92 76 3 0 8 -13 11 -29 7 -36
23 -42 87 -34 60 7 67 23 10 23 -33 0 -40 3 -40 19 0 13 -8 21 -22 23 -21 4
-19 6 15 23 42 21 50 40 12 31 -36 -9 -32 13 5 27 17 6 33 19 36 29 9 31 35
36 166 34 122 -2 126 -1 111 16 -15 17 -14 18 11 18 19 0 29 -6 33 -20 3 -11
9 -17 14 -15 4 3 7 -7 6 -22 -2 -23 5 -31 43 -49 61 -31 82 -30 40 1 -19 14
-39 25 -46 25 -7 0 -16 5 -19 11 -8 11 92 10 110 -2 18 -11 71 -18 83 -10 17
10 -50 41 -88 41 -18 0 -30 5 -30 13 0 16 42 57 58 57 7 0 12 11 12 25 0 20 5
25 25 25 15 0 25 6 25 14 0 8 9 18 20 21 25 8 26 25 2 25 -19 0 -42 18 -42 32
0 4 7 8 15 8 25 0 17 34 -12 48 -45 20 -71 13 -39 -12 8 -6 18 -24 22 -39 6
-26 5 -28 -19 -22 -24 7 -25 5 -26 -50 0 -61 -9 -74 -58 -92 -28 -10 -33 -9
-33 4 0 9 8 22 18 29 15 12 15 13 1 14 -9 0 -19 -7 -23 -15 -3 -8 -12 -12 -21
-9 -18 7 -19 0 -5 -27 14 -26 0 -24 -27 4 -24 26 -16 54 11 44 10 -4 19 -1 22
8 8 21 -4 65 -17 65 -7 0 -9 -10 -5 -24 5 -20 1 -25 -21 -30 -14 -4 -31 -2
-36 3 -16 16 -37 13 -31 -4 4 -8 1 -15 -5 -15 -6 0 -11 -5 -11 -11 0 -6 9 -8
20 -4 24 8 26 -7 5 -25 -13 -11 -19 -9 -36 9 -11 12 -17 26 -13 32 4 7 -20 -3
-52 -21 l-59 -32 -280 -1 c-279 -1 -395 6 -395 24 0 5 9 9 19 9 11 0 23 5 27
11 4 7 -4 10 -22 7 l-29 -3 -2 147 c-1 81 -4 151 -7 156 -3 5 -23 12 -45 16
-22 3 -43 11 -46 16 -14 22 57 31 243 32 l192 0 -1 36 c0 21 -4 46 -9 57 -7
17 -9 16 -9 -9 l-1 -29 -227 7 c-181 5 -548 22 -560 25 -15 5 20 127 43 150
11 12 45 14 176 12 89 -1 165 -4 168 -6 4 -2 91 -5 196 -6 l189 -2 0 34 0 34
-60 6 c-33 4 -176 7 -318 8 -204 1 -265 -2 -292 -13 -42 -18 -44 -9 -11 47 14
23 31 67 39 97 15 55 16 188 2 210 -4 6 1 18 11 26 18 15 18 15 -4 10 -21 -4
-23 -2 -18 19 4 15 1 27 -7 32 -7 4 -27 26 -44 49 -30 38 -31 42 -17 63 11 16
21 20 37 15 20 -6 20 -6 4 10 -16 16 -18 16 -43 -9 l-26 -26 -38 33 c-21 18
-39 40 -39 49 -1 13 -15 18 -57 24 -30 3 -71 13 -89 21 -34 14 -34 14 -21 46
8 18 24 38 36 44 34 18 47 34 27 34 -9 0 -17 5 -17 10 0 6 5 10 10 10 6 0 10
5 10 12 0 9 -3 9 -12 0 -17 -17 -24 -15 -43 14 -12 19 -14 29 -5 39 9 11 5 11
-25 1 -20 -7 -52 -10 -73 -7 -36 6 -37 7 -33 46 2 22 4 49 5 60 1 17 7 20 41
17 37 -2 39 -1 21 13 -18 14 -18 15 10 27 l29 12 -30 4 c-22 3 -34 -2 -48 -20
l-20 -23 7 40 c28 182 6 234 -132 312 -54 30 -73 35 -140 38 -42 2 -91 1 -109
-3z m-1180 -1084 c13 1 16 -4 12 -19 -4 -13 -2 -19 9 -19 9 0 16 -5 16 -11 0
-7 -9 -9 -22 -5 -45 14 -53 12 -53 -14 0 -22 -5 -25 -43 -28 -31 -2 -44 1 -48
12 -3 9 -14 16 -24 16 -10 0 -23 7 -30 15 -7 8 -16 12 -21 9 -5 -3 -9 0 -9 6
0 6 8 9 18 6 57 -17 89 -17 95 -1 4 10 0 18 -11 23 -22 9 44 22 73 14 11 -3
28 -5 38 -4z m187 -28 c0 -5 -7 -10 -15 -10 -8 0 -15 5 -15 10 0 6 7 10 15 10
8 0 15 -4 15 -10z m3270 -880 c0 -5 -7 -10 -15 -10 -8 0 -15 5 -15 10 0 6 7
10 15 10 8 0 15 -4 15 -10z m-753 -214 c-3 -30 -11 -65 -19 -78 -13 -23 -13
-23 -16 10 -3 25 -8 32 -25 32 -11 0 -33 12 -49 27 -26 25 -27 28 -11 45 12
13 31 18 71 18 l55 0 -6 -54z m-259 17 c-3 -29 -32 -43 -50 -25 -18 18 1 52
28 52 22 0 25 -4 22 -27z m-182 -25 c4 -6 9 -68 10 -137 2 -69 5 -135 7 -146
3 -12 8 -46 12 -78 l7 -57 -34 0 c-37 0 -98 18 -98 28 1 41 12 49 61 44 42 -4
48 -2 43 11 -4 13 -16 15 -53 10 l-48 -5 -6 62 c-13 118 -9 222 9 242 15 16
18 16 28 2 12 -15 46 -10 46 7 0 4 -7 6 -15 3 -8 -4 -15 -2 -15 4 0 9 15 19
32 21 4 1 10 -4 14 -11z m224 -65 c0 -7 18 -25 40 -39 47 -31 50 -37 14 -28
-24 6 -25 5 -15 -14 8 -15 7 -23 -4 -32 -8 -7 -17 -27 -21 -46 -7 -40 -19 -44
-28 -10 -5 20 -14 26 -51 32 -48 7 -65 34 -21 34 14 0 28 5 31 10 4 6 -5 10
-19 10 -32 0 -32 5 0 47 14 18 22 38 18 45 -4 6 1 17 12 25 16 12 20 11 31 -4
7 -9 13 -23 13 -30z m270 -49 c0 -12 -34 -33 -52 -34 -10 0 -18 5 -18 10 0 6
9 10 19 10 11 0 23 5 26 10 7 11 25 14 25 4z m-698 -137 c-2 -45 -8 -86 -13
-91 -10 -11 -12 136 -2 172 11 45 20 2 15 -81z m678 52 c0 -5 -4 -9 -10 -9 -5
0 -10 7 -10 16 0 8 5 12 10 9 6 -3 10 -10 10 -16z m-140 -49 c11 -7 12 -12 3
-21 -9 -9 -19 -9 -42 1 -17 7 -31 16 -31 21 0 12 51 11 70 -1z m80 -4 c0 -3
-4 -8 -10 -11 -5 -3 -10 -1 -10 4 0 6 5 11 10 11 6 0 10 -2 10 -4z m80 -6 c0
-5 -4 -10 -10 -10 -5 0 -10 5 -10 10 0 6 5 10 10 10 6 0 10 -4 10 -10z"/>
<path d="M5063 2620 c-30 -12 -29 -18 2 -16 14 0 25 7 25 14 0 6 -1 12 -2 11
-2 0 -13 -4 -25 -9z"/>
<path d="M2280 2610 c0 -5 -7 -10 -15 -10 -8 0 -15 -3 -15 -6 0 -13 36 -33 59
-34 l24 0 -21 23 c-12 13 -19 27 -15 30 3 4 1 7 -5 7 -7 0 -12 -4 -12 -10z"/>
<path d="M2340 2610 c0 -5 5 -10 10 -10 6 0 10 5 10 10 0 6 -4 10 -10 10 -5 0
-10 -4 -10 -10z"/>
<path d="M2396 2568 c12 -5 27 -21 35 -34 12 -24 29 -32 29 -15 0 20 -43 61
-63 60 l-22 0 21 -11z"/>
<path d="M3855 2570 c3 -5 12 -7 20 -3 21 7 19 13 -6 13 -11 0 -18 -4 -14 -10z"/>
<path d="M2100 2550 c0 -5 9 -10 21 -10 11 0 17 5 14 10 -3 6 -13 10 -21 10
-8 0 -14 -4 -14 -10z"/>
<path d="M5041 2526 c-6 -15 -21 -26 -43 -31 -18 -4 -27 -9 -19 -12 12 -5 -34
-25 -124 -53 -16 -6 -45 -10 -63 -10 -39 0 -75 -17 -67 -31 4 -5 16 -9 28 -9
13 0 56 -12 97 -26 41 -14 98 -29 126 -34 29 -4 60 -10 70 -13 11 -3 31 -8 47
-11 l27 -6 0 113 0 113 -35 17 c-35 17 -36 17 -44 -7z"/>
<path d="M1980 2511 c0 -6 9 -11 19 -11 11 0 23 -4 26 -10 3 -5 15 -10 26 -10
26 0 16 16 -13 23 -13 2 -31 8 -40 12 -11 4 -18 3 -18 -4z"/>
<path d="M2735 2500 c11 -5 29 -9 40 -9 l20 0 -20 9 c-11 5 -29 9 -40 9 l-20
0 20 -9z"/>
<path d="M1005 2490 c-38 -4 -87 -12 -108 -18 -33 -9 -37 -9 -27 3 10 12 5 12
-31 0 -47 -16 -303 -53 -435 -64 -57 -4 -88 -11 -101 -23 -11 -10 -25 -18 -33
-18 -10 0 -10 -3 0 -15 10 -12 15 -12 36 2 14 9 27 13 31 9 3 -3 1 -6 -6 -6
-7 0 -9 -4 -6 -10 3 -6 13 -6 23 -1 60 30 148 49 154 32 2 -5 35 -3 78 4 93
17 100 17 100 5 0 -5 -13 -10 -29 -10 -39 0 -48 -16 -15 -24 21 -6 33 -1 55
20 17 17 34 24 44 20 9 -3 26 0 37 8 13 9 33 12 54 9 26 -4 38 -1 48 12 10 14
16 15 32 5 14 -8 29 -9 54 -2 19 6 27 11 18 11 -10 1 -18 8 -18 16 0 12 19 15
110 15 67 0 110 4 110 10 0 6 -8 10 -17 10 -10 0 -34 2 -53 4 -19 2 -66 1
-105 -4z"/>
<path d="M2828 2483 c7 -3 16 -2 19 1 4 3 -2 6 -13 5 -11 0 -14 -3 -6 -6z"/>
<path d="M2984 2454 c22 -8 45 -13 50 -10 15 5 -40 26 -67 25 -15 0 -10 -5 17
-15z"/>
<path d="M2055 2450 c-3 -5 -1 -10 4 -10 6 0 11 5 11 10 0 6 -2 10 -4 10 -3 0
-8 -4 -11 -10z"/>
<path d="M2075 2410 c3 -5 16 -10 28 -10 18 0 19 2 7 10 -20 13 -43 13 -35 0z"/>
<path d="M2337 2413 c-13 -12 -7 -23 13 -23 13 0 18 5 14 15 -7 16 -17 19 -27
8z"/>
<path d="M2000 2400 c19 -13 30 -13 30 0 0 6 -10 10 -22 10 -19 0 -20 -2 -8
-10z"/>
<path d="M2416 2395 c-3 -8 -1 -15 4 -15 6 0 10 7 10 15 0 8 -2 15 -4 15 -2 0
-6 -7 -10 -15z"/>
<path d="M1945 2390 c-3 -5 -1 -10 4 -10 6 0 11 5 11 10 0 6 -2 10 -4 10 -3 0
-8 -4 -11 -10z"/>
<path d="M215 2370 c3 -5 13 -10 21 -10 8 0 14 5 14 10 0 6 -9 10 -21 10 -11
0 -17 -4 -14 -10z"/>
<path d="M2160 2370 c0 -5 5 -10 10 -10 6 0 10 5 10 10 0 6 -4 10 -10 10 -5 0
-10 -4 -10 -10z"/>
<path d="M90 2353 c11 -8 36 -17 56 -20 31 -5 35 -3 33 11 -3 14 -16 18 -57
20 -48 3 -51 2 -32 -11z"/>
<path d="M3454 2355 c11 -8 27 -15 35 -15 10 1 7 6 -9 15 -33 19 -50 18 -26 0z"/>
<path d="M4016 2362 c-3 -5 -23 -7 -45 -5 -43 3 -58 -13 -18 -20 19 -3 20 -4
5 -11 -10 -5 -26 -5 -35 -1 -23 9 -178 9 -192 0 -19 -11 -12 -30 17 -42 41
-19 89 -26 109 -17 10 4 27 9 38 10 55 7 102 26 120 48 12 15 26 26 33 26 7 0
12 5 12 10 0 12 -37 13 -44 2z"/>
<path d="M0 2340 c0 -5 15 -10 33 -10 24 0 28 3 17 10 -20 13 -50 13 -50 0z"/>
<path d="M365 2341 c6 -5 28 -12 50 -16 26 -4 35 -3 25 3 -22 13 -87 25 -75
13z"/>
<path d="M2307 2330 c-30 -24 -47 -25 -73 -5 -22 17 -34 19 -34 6 0 -5 11 -12
25 -15 16 -4 25 -13 25 -27 0 -19 4 -20 73 -13 73 7 101 14 54 14 -14 0 -29 5
-32 10 -4 6 -16 8 -28 5 -20 -5 -19 -3 6 19 33 31 21 35 -16 6z"/>
<path d="M2375 2340 c-3 -5 1 -10 9 -10 9 0 16 5 16 10 0 6 -4 10 -9 10 -6 0
-13 -4 -16 -10z"/>
<path d="M702 2328 c-19 -19 -14 -28 14 -28 18 0 25 5 22 17 -4 21 -21 26 -36
11z"/>
<path d="M780 2329 c0 -5 5 -7 10 -4 6 3 10 8 10 11 0 2 -4 4 -10 4 -5 0 -10
-5 -10 -11z"/>
<path d="M1940 2330 c0 -5 9 -10 20 -10 11 0 20 5 20 10 0 6 -9 10 -20 10 -11
0 -20 -4 -20 -10z"/>
<path d="M2470 2332 c0 -6 17 -12 38 -15 20 -3 51 -8 67 -11 l30 -6 -30 14
c-41 18 -105 29 -105 18z"/>
<path d="M3540 2330 c14 -4 36 -8 50 -8 23 -1 23 0 5 8 -11 5 -33 8 -50 8 -29
0 -29 0 -5 -8z"/>
<path d="M2001 2314 c0 -11 3 -14 6 -6 3 7 2 16 -1 19 -3 4 -6 -2 -5 -13z"/>
<path d="M2149 2283 c-12 -15 -12 -16 4 -10 10 4 23 7 28 7 6 0 7 5 4 10 -9
15 -21 12 -36 -7z"/>
<path d="M2621 2296 c2 -2 14 -9 27 -15 18 -10 22 -9 22 4 0 10 -9 15 -27 15
-14 0 -24 -2 -22 -4z"/>
<path d="M2891 2284 c10 -13 89 -24 89 -13 0 15 -28 27 -62 26 -28 -1 -35 -4
-27 -13z"/>
<path d="M3425 2290 c3 -5 16 -10 28 -10 18 0 19 2 7 10 -20 13 -43 13 -35 0z"/>
<path d="M4685 2290 c-4 -6 7 -10 24 -10 17 0 31 5 31 10 0 6 -11 10 -24 10
-14 0 -28 -4 -31 -10z"/>
<path d="M15 2273 c21 -14 59 -18 51 -4 -3 5 -20 11 -37 13 -29 5 -30 4 -14
-9z"/>
<path d="M1902 2280 c-36 -8 -31 -20 13 -36 57 -20 115 -19 115 2 0 13 -7 15
-30 11 -16 -4 -30 -3 -30 1 0 13 -45 28 -68 22z"/>
<path d="M2065 2276 c-17 -12 -16 -14 13 -18 34 -5 41 2 19 21 -10 8 -18 7
-32 -3z"/>
<path d="M2420 2283 c0 -7 32 -22 115 -52 5 -2 3 3 -5 11 -8 9 -28 20 -45 26
-16 5 -38 13 -47 17 -10 4 -18 3 -18 -2z"/>
<path d="M3245 2268 c11 -6 21 -12 23 -14 2 -1 -1 -12 -8 -23 -9 -18 -8 -21
10 -21 11 0 19 6 18 13 -2 7 5 11 17 9 18 -4 18 -2 -4 22 -14 15 -35 26 -50
26 -25 -1 -25 -1 -6 -12z"/>
<path d="M3540 2266 c0 -9 5 -16 10 -16 6 0 10 4 10 9 0 6 -4 13 -10 16 -5 3
-10 -1 -10 -9z"/>
<path d="M155 2260 c-3 -6 1 -7 9 -4 18 7 21 14 7 14 -6 0 -13 -4 -16 -10z"/>
<path d="M678 2240 c25 -24 32 -25 32 -6 0 8 -7 17 -16 20 -31 12 -38 6 -16
-14z"/>
<path d="M875 2250 c3 -5 8 -10 11 -10 2 0 4 5 4 10 0 6 -5 10 -11 10 -5 0 -7
-4 -4 -10z"/>
<path d="M2735 2250 c-3 -5 1 -10 10 -10 9 0 13 5 10 10 -3 6 -8 10 -10 10 -2
0 -7 -4 -10 -10z"/>
<path d="M3180 2250 c0 -6 12 -15 26 -20 36 -14 39 -13 19 10 -19 21 -45 27
-45 10z"/>
<path d="M3468 2253 c7 -3 16 -2 19 1 4 3 -2 6 -13 5 -11 0 -14 -3 -6 -6z"/>
<path d="M3580 2245 c0 -8 5 -15 10 -15 6 0 10 7 10 15 0 8 -4 15 -10 15 -5 0
-10 -7 -10 -15z"/>
<path d="M215 2240 c-3 -5 1 -10 9 -10 9 0 16 5 16 10 0 6 -4 10 -9 10 -6 0
-13 -4 -16 -10z"/>
<path d="M3675 2230 c3 -5 10 -10 16 -10 5 0 9 5 9 10 0 6 -7 10 -16 10 -8 0
-12 -4 -9 -10z"/>
<path d="M46 2221 c31 -13 123 -24 104 -13 -8 5 -40 12 -70 15 -36 4 -48 3
-34 -2z"/>
<path d="M1860 2220 c0 -5 5 -10 11 -10 5 0 7 5 4 10 -3 6 -8 10 -11 10 -2 0
-4 -4 -4 -10z"/>
<path d="M2796 2215 c4 -8 8 -15 10 -15 2 0 4 7 4 15 0 8 -4 15 -10 15 -5 0
-7 -7 -4 -15z"/>
<path d="M612 2208 c3 -7 18 -14 34 -16 l29 -3 -29 16 c-34 18 -39 19 -34 3z"/>
<path d="M2160 2210 c0 -5 5 -10 10 -10 6 0 10 5 10 10 0 6 -4 10 -10 10 -5 0
-10 -4 -10 -10z"/>
<path d="M2315 2210 c3 -5 16 -10 28 -10 18 0 19 2 7 10 -20 13 -43 13 -35 0z"/>
<path d="M2581 2196 c13 -14 26 -23 28 -20 6 6 -30 44 -42 44 -5 0 1 -11 14
-24z"/>
<path d="M2655 2210 c-3 -5 -1 -10 4 -10 6 0 11 5 11 10 0 6 -2 10 -4 10 -3 0
-8 -4 -11 -10z"/>
<path d="M2744 2206 c-8 -20 3 -36 19 -30 7 2 24 -5 37 -16 15 -13 26 -17 28
-10 5 14 -10 31 -47 53 -27 16 -32 16 -37 3z"/>
<path d="M3100 2206 c0 -17 22 -26 61 -26 16 0 29 -4 29 -10 0 -5 7 -10 15
-10 30 0 14 20 -25 30 -21 6 -42 15 -45 20 -9 15 -35 12 -35 -4z"/>
<path d="M3366 2205 c4 -9 11 -14 16 -13 15 5 11 23 -6 26 -11 2 -14 -2 -10
-13z"/>
<path d="M3460 2210 c0 -5 7 -10 16 -10 8 0 12 5 9 10 -3 6 -10 10 -16 10 -5
0 -9 -4 -9 -10z"/>
<path d="M1910 2190 c6 -11 19 -20 28 -20 10 0 23 -5 30 -12 9 -9 12 -9 12 0
0 12 -56 52 -73 52 -4 0 -3 -9 3 -20z"/>
<path d="M2023 2203 c-30 -6 -29 -19 1 -27 30 -7 58 2 53 18 -4 13 -22 16 -54
9z"/>
<path d="M2700 2195 c0 -8 5 -15 10 -15 6 0 10 7 10 15 0 8 -4 15 -10 15 -5 0
-10 -7 -10 -15z"/>
<path d="M2915 2200 c3 -5 11 -10 16 -10 6 0 7 5 4 10 -3 6 -11 10 -16 10 -6
0 -7 -4 -4 -10z"/>
<path d="M3542 2197 c-14 -17 -123 -38 -180 -36 -23 1 -47 -2 -52 -7 -11 -11
96 -11 155 0 44 8 105 36 105 48 0 12 -16 9 -28 -5z"/>
<path d="M3760 2200 c0 -5 5 -10 10 -10 6 0 10 5 10 10 0 6 -4 10 -10 10 -5 0
-10 -4 -10 -10z"/>
<path d="M445 2190 c-3 -6 1 -7 9 -4 18 7 21 14 7 14 -6 0 -13 -4 -16 -10z"/>
<path d="M2280 2185 c7 -8 19 -15 27 -15 12 0 12 2 -1 15 -8 8 -20 15 -27 15
-9 0 -8 -4 1 -15z"/>
<path d="M3835 2180 c10 -11 23 -20 28 -20 6 0 2 9 -8 20 -10 11 -23 20 -28
20 -6 0 -2 -9 8 -20z"/>
<path d="M3942 2189 c2 -7 10 -15 17 -17 8 -3 12 1 9 9 -2 7 -10 15 -17 17 -8
3 -12 -1 -9 -9z"/>
<path d="M1820 2180 c0 -5 5 -10 11 -10 5 0 7 5 4 10 -3 6 -8 10 -11 10 -2 0
-4 -4 -4 -10z"/>
<path d="M220 2170 c0 -5 7 -10 16 -10 8 0 12 5 9 10 -3 6 -10 10 -16 10 -5 0
-9 -4 -9 -10z"/>
<path d="M760 2170 c-12 -8 -10 -10 8 -10 13 0 20 4 17 10 -7 12 -6 12 -25 0z"/>
<path d="M2425 2170 c-3 -5 -1 -10 4 -10 6 0 11 5 11 10 0 6 -2 10 -4 10 -3 0
-8 -4 -11 -10z"/>
<path d="M580 2155 c0 -8 0 -18 -1 -22 0 -4 4 -9 10 -11 6 -2 11 8 11 22 0 14
-4 26 -10 26 -5 0 -10 -7 -10 -15z"/>
<path d="M2110 2154 c-14 -7 -35 -14 -47 -14 -13 0 -23 -5 -23 -11 0 -6 7 -8
15 -5 9 3 18 -1 21 -9 9 -24 37 -19 29 5 -6 18 -2 20 31 20 31 0 35 2 24 15
-15 18 -17 17 -50 -1z"/>
<path d="M2514 2155 c-18 -15 -18 -15 5 -13 14 2 26 9 29 16 5 17 -10 15 -34
-3z"/>
<path d="M260 2152 c0 -4 9 -13 20 -20 23 -14 26 -7 6 14 -16 15 -26 18 -26 6z"/>
<path d="M452 2151 c-10 -6 -8 -10 10 -14 51 -14 90 -2 58 18 -5 3 -10 1 -10
-4 0 -6 -7 -11 -15 -11 -8 0 -15 5 -15 10 0 12 -10 13 -28 1z"/>
<path d="M2597 2133 c-8 -19 -8 -26 2 -32 8 -5 9 -11 4 -14 -6 -4 -20 3 -32
14 -32 30 -36 17 -5 -14 32 -32 54 -34 61 -7 6 24 58 54 76 44 8 -5 9 -4 2 3
-5 6 -29 15 -53 21 -41 10 -44 9 -55 -15z"/>
<path d="M2920 2150 c0 -5 5 -10 10 -10 6 0 10 5 10 10 0 6 -4 10 -10 10 -5 0
-10 -4 -10 -10z"/>
<path d="M4085 2150 c-4 -6 11 -10 37 -9 36 1 39 2 18 9 -36 11 -48 11 -55 0z"/>
<path d="M2857 2141 c-17 -6 -17 -8 2 -25 21 -19 41 -15 41 9 0 17 -20 24 -43
16z"/>
<path d="M3060 2140 c0 -5 5 -10 11 -10 5 0 7 5 4 10 -3 6 -8 10 -11 10 -2 0
-4 -4 -4 -10z"/>
<path d="M4341 2129 c7 -14 14 -18 21 -11 13 13 2 32 -18 32 -12 0 -13 -4 -3
-21z"/>
<path d="M140 2130 c0 -5 5 -10 11 -10 5 0 7 5 4 10 -3 6 -8 10 -11 10 -2 0
-4 -4 -4 -10z"/>
<path d="M355 2131 c-19 -8 -19 -8 4 -20 27 -15 51 -8 51 14 0 16 -22 19 -55
6z"/>
<path d="M2200 2135 c0 -5 67 -45 76 -45 15 0 -31 36 -54 42 -12 4 -22 5 -22
3z"/>
<path d="M2300 2130 c0 -5 18 -14 39 -20 39 -10 71 -5 71 10 0 17 -19 21 -39
8 -16 -10 -23 -10 -33 0 -14 14 -38 16 -38 2z"/>
<path d="M3218 2127 c-31 -12 -34 -24 -15 -50 10 -14 17 -15 50 -5 20 6 37 16
37 21 0 5 7 4 15 -3 8 -6 20 -10 27 -7 19 7 -42 29 -61 22 -12 -4 -12 -2 2 9
16 12 16 14 1 20 -19 7 -21 7 -56 -7z"/>
<path d="M3975 2130 c3 -5 10 -10 16 -10 5 0 9 5 9 10 0 6 -7 10 -16 10 -8 0
-12 -4 -9 -10z"/>
<path d="M685 2110 c3 -5 10 -10 16 -10 5 0 9 5 9 10 0 6 -7 10 -16 10 -8 0
-12 -4 -9 -10z"/>
<path d="M4078 2113 c6 -2 18 -2 25 0 6 3 1 5 -13 5 -14 0 -19 -2 -12 -5z"/>
<path d="M500 2094 l-25 -14 30 0 c17 0 48 -11 70 -25 49 -30 55 -30 55 -4 0
12 -4 17 -11 13 -12 -7 -79 25 -79 38 0 11 -10 9 -40 -8z"/>
<path d="M1980 2095 c0 -8 5 -15 10 -15 6 0 10 7 10 15 0 8 -4 15 -10 15 -5 0
-10 -7 -10 -15z"/>
<path d="M2735 2100 c-3 -5 -22 -10 -41 -10 -45 0 -43 -11 6 -34 45 -22 44
-20 29 -47 -7 -14 -16 -18 -30 -14 -11 4 -19 2 -19 -4 0 -6 -13 -11 -30 -11
-16 0 -30 5 -30 10 0 6 7 10 16 10 8 0 12 5 9 10 -3 6 -18 10 -32 10 -22 0
-24 -2 -12 -16 11 -14 11 -18 -4 -29 -26 -19 -21 -24 23 -18 22 3 40 1 40 -4
0 -5 16 -9 35 -9 36 0 42 5 25 22 -7 7 -1 18 20 34 35 27 38 46 9 55 -31 10
-13 20 31 16 22 -1 40 2 40 8 0 9 -8 12 -62 27 -9 3 -19 0 -23 -6z"/>
<path d="M2920 2103 c0 -10 37 -53 46 -53 8 0 -14 36 -30 50 -9 7 -16 8 -16 3z"/>
<path d="M2017 2089 c8 -8 16 -8 30 0 16 9 14 10 -11 11 -22 0 -27 -3 -19 -11z"/>
<path d="M2974 2089 c-9 -16 27 -22 41 -8 12 12 11 14 -10 15 -14 1 -28 -2
-31 -7z"/>
<path d="M3530 2090 c0 -5 7 -10 15 -10 8 0 15 5 15 10 0 6 -7 10 -15 10 -8 0
-15 -4 -15 -10z"/>
<path d="M3600 2075 c-13 -14 -21 -28 -17 -31 7 -7 46 35 47 49 0 12 -5 8 -30
-18z"/>
<path d="M4390 2091 c0 -10 30 -24 37 -17 3 3 2 9 -2 15 -8 13 -35 15 -35 2z"/>
<path d="M90 2086 c0 -2 7 -7 16 -10 8 -3 12 -2 9 4 -6 10 -25 14 -25 6z"/>
<path d="M140 2080 c0 -5 5 -10 10 -10 6 0 10 5 10 10 0 6 -4 10 -10 10 -5 0
-10 -4 -10 -10z"/>
<path d="M3065 2080 c3 -5 11 -10 16 -10 6 0 7 5 4 10 -3 6 -11 10 -16 10 -6
0 -7 -4 -4 -10z"/>
<path d="M3116 2082 c6 -4 13 -15 17 -24 6 -18 27 -25 27 -10 0 11 -34 42 -46
42 -5 0 -4 -4 2 -8z"/>
<path d="M3843 2084 c19 -6 24 -24 6 -24 -8 0 -8 -5 1 -15 21 -26 39 -19 31
13 -5 19 -14 28 -32 29 -14 1 -17 0 -6 -3z"/>
<path d="M3940 2086 c0 -2 9 -6 20 -9 11 -3 20 -1 20 4 0 5 -9 9 -20 9 -11 0
-20 -2 -20 -4z"/>
<path d="M4270 2080 c0 -5 5 -10 10 -10 6 0 10 5 10 10 0 6 -4 10 -10 10 -5 0
-10 -4 -10 -10z"/>
<path d="M2085 2070 c3 -5 11 -10 17 -10 6 0 16 -7 22 -15 7 -10 16 -12 25 -6
11 7 5 13 -24 25 -44 19 -48 19 -40 6z"/>
<path d="M3381 2076 c12 -10 60 -16 54 -6 -3 5 -18 10 -32 10 -15 0 -24 -2
-22 -4z"/>
<path d="M4010 2070 c0 -5 7 -10 15 -10 8 0 15 -4 15 -10 0 -5 5 -10 10 -10 6
0 5 8 -2 20 -13 21 -38 27 -38 10z"/>
<path d="M4460 2070 c0 -5 5 -10 10 -10 6 0 10 5 10 10 0 6 -4 10 -10 10 -5 0
-10 -4 -10 -10z"/>
<path d="M4513 2073 c9 -2 23 -2 30 0 6 3 -1 5 -18 5 -16 0 -22 -2 -12 -5z"/>
<path d="M45 2060 c18 -7 16 -9 -12 -15 -18 -4 -33 -14 -33 -21 0 -19 34 -18
50 1 14 17 50 20 50 5 0 -5 7 -10 15 -10 8 0 15 4 15 9 0 12 -63 41 -87 40
-16 0 -16 -1 2 -9z"/>
<path d="M310 2060 c-13 -9 -13 -11 0 -20 27 -17 42 -12 30 10 -12 23 -11 23
-30 10z"/>
<path d="M2040 2060 c-13 -8 -11 -13 7 -32 18 -17 25 -20 35 -10 9 9 9 12 0
12 -7 0 -12 6 -12 14 0 20 -13 27 -30 16z"/>
<path d="M2297 2059 c-10 -6 -27 -7 -38 -4 -15 5 -19 4 -15 -4 9 -13 86 -15
86 -2 0 16 -14 20 -33 10z"/>
<path d="M3668 2048 c-10 -10 -14 -18 -9 -18 5 0 16 -2 23 -5 9 -4 14 2 15 15
2 27 -9 30 -29 8z"/>
<path d="M4364 2059 c-3 -6 -19 -8 -35 -5 -21 4 -29 2 -29 -9 0 -7 -8 -16 -17
-18 -10 -3 -4 -5 12 -4 17 0 36 -2 43 -7 11 -7 61 22 62 35 0 12 -29 18 -36 8z"/>
<path d="M2846 2052 c-2 -4 4 -13 15 -20 11 -7 19 -8 19 -2 0 5 6 10 14 10 8
0 18 5 21 10 4 6 -8 10 -29 10 -19 0 -37 -4 -40 -8z"/>
<path d="M3090 2045 c0 -8 5 -15 10 -15 6 0 10 -6 10 -14 0 -7 15 -17 33 -23
20 -6 32 -15 31 -26 -1 -11 6 -16 20 -16 11 0 32 -2 46 -6 24 -7 24 -7 5 8
-11 9 -26 17 -32 17 -7 0 -13 4 -13 8 0 4 -20 18 -45 30 -31 15 -43 26 -39 37
4 10 0 15 -10 15 -9 0 -16 -7 -16 -15z"/>
<path d="M3340 2038 c0 -15 5 -30 11 -33 16 -11 17 -2 3 30 l-13 30 -1 -27z"/>
<path d="M3510 2050 c0 -5 9 -10 20 -10 11 0 20 -4 20 -10 0 -5 -7 -10 -15
-10 -8 0 -15 -9 -15 -20 0 -23 -10 -26 -28 -8 -6 6 -15 8 -19 4 -4 -4 -1 -11
7 -17 10 -6 5 -7 -17 -3 -37 7 -65 -9 -56 -32 6 -17 39 -19 49 -3 4 7 25 9 58
5 44 -5 49 -4 34 8 -19 14 -24 36 -8 36 5 0 14 9 20 20 8 16 8 24 -4 35 -17
17 -46 20 -46 5z"/>
<path d="M3730 2052 c0 -5 14 -21 31 -38 31 -29 31 -29 24 -4 -10 33 -55 67
-55 42z"/>
<path d="M4724 2045 c7 -19 -86 -115 -111 -115 -11 0 -1 -12 28 -33 26 -17 55
-44 65 -59 11 -16 25 -28 32 -28 8 0 16 -8 18 -17 5 -17 97 -54 133 -53 7 0
28 -9 45 -20 32 -19 134 -50 168 -50 16 0 18 12 18 129 l0 129 -27 10 c-16 6
-50 17 -78 23 -27 7 -54 15 -60 19 -5 4 -48 17 -94 29 -46 11 -95 28 -107 36
-29 19 -38 19 -30 0z"/>
<path d="M360 2036 c0 -9 5 -16 10 -16 6 0 10 4 10 9 0 6 -4 13 -10 16 -5 3
-10 -1 -10 -9z"/>
<path d="M2365 2040 c-3 -5 -2 -10 4 -10 5 0 13 5 16 10 3 6 2 10 -4 10 -5 0
-13 -4 -16 -10z"/>
<path d="M4475 2039 c-4 -6 -5 -13 -2 -16 7 -7 27 6 27 18 0 12 -17 12 -25 -2z"/>
<path d="M535 2030 c3 -5 12 -10 20 -10 8 0 17 5 20 10 4 6 -5 10 -20 10 -15
0 -24 -4 -20 -10z"/>
<path d="M665 2024 c-19 -15 -19 -15 8 -9 17 5 33 2 43 -6 14 -12 16 -11 13 6
-5 25 -38 30 -64 9z"/>
<path d="M4010 2032 c0 -11 78 -37 86 -29 3 3 -11 13 -31 21 -42 18 -55 20
-55 8z"/>
<path d="M4110 2030 c0 -5 7 -10 15 -10 8 0 15 5 15 10 0 6 -7 10 -15 10 -8 0
-15 -4 -15 -10z"/>
<path d="M2170 2010 c0 -17 7 -20 40 -20 22 0 40 -4 40 -10 0 -5 4 -10 8 -10
5 0 8 10 7 23 -2 23 -35 38 -35 16 0 -8 -6 -7 -18 4 -25 23 -42 21 -42 -3z"/>
<path d="M2800 2021 c0 -17 26 -24 47 -12 16 9 16 10 1 11 -9 0 -23 3 -32 6
-9 3 -16 1 -16 -5z"/>
<path d="M3210 2020 c-13 -8 -13 -10 2 -10 9 0 20 5 23 10 8 13 -5 13 -25 0z"/>
<path d="M4594 2019 c-9 -15 1 -21 26 -17 21 3 21 3 1 15 -14 9 -22 9 -27 2z"/>
<path d="M153 2006 c2 -6 19 -10 36 -8 18 1 54 -7 81 -19 58 -25 99 -19 60 8
-13 9 -37 18 -54 19 -108 11 -127 11 -123 0z"/>
<path d="M780 2010 c-13 -8 -13 -10 2 -10 9 0 20 5 23 10 8 13 -5 13 -25 0z"/>
<path d="M2280 2010 c0 -5 5 -10 11 -10 5 0 7 5 4 10 -3 6 -8 10 -11 10 -2 0
-4 -4 -4 -10z"/>
<path d="M2328 2008 c19 -19 14 -29 -12 -22 -13 3 -27 1 -31 -5 -10 -16 25
-26 46 -13 20 13 32 2 23 -22 -5 -12 0 -16 20 -16 28 0 35 14 11 24 -8 3 -15
10 -15 16 0 11 -36 50 -47 50 -4 0 -2 -5 5 -12z"/>
<path d="M2412 2008 c3 -7 13 -15 22 -16 12 -3 17 1 14 10 -3 7 -13 15 -22 16
-12 3 -17 -1 -14 -10z"/>
<path d="M3030 2010 c-13 -8 -13 -10 2 -10 9 0 20 5 23 10 8 13 -5 13 -25 0z"/>
<path d="M3430 2016 c0 -2 7 -7 16 -10 8 -3 12 -2 9 4 -6 10 -25 14 -25 6z"/>
<path d="M3580 2006 c0 -9 7 -12 19 -9 10 2 24 -1 32 -9 15 -14 72 -21 64 -8
-3 5 -19 11 -35 15 -16 4 -32 11 -35 16 -9 14 -45 11 -45 -5z"/>
<path d="M3860 1991 c20 -19 45 -31 62 -31 29 0 46 -15 26 -23 -8 -3 -4 -6 7
-7 11 -1 33 -4 49 -6 27 -3 28 -2 11 17 -17 18 -17 19 3 19 25 0 29 15 8 23
-8 3 -19 0 -25 -7 -13 -16 -74 -4 -136 26 l-40 19 35 -30z"/>
<path d="M2380 2000 c0 -5 5 -10 10 -10 6 0 10 5 10 10 0 6 -4 10 -10 10 -5 0
-10 -4 -10 -10z"/>
<path d="M4228 2004 c-9 -8 26 -41 52 -49 18 -6 21 -3 18 12 -2 10 -11 17 -20
15 -9 -1 -18 4 -22 13 -6 15 -18 19 -28 9z"/>
<path d="M4650 2000 c0 -5 7 -10 15 -10 8 0 15 5 15 10 0 6 -7 10 -15 10 -8 0
-15 -4 -15 -10z"/>
<path d="M86 1983 c-4 -5 -15 -8 -24 -9 -10 -1 -27 -2 -39 -3 -17 -1 -23 -7
-23 -24 0 -28 27 -43 90 -51 l45 -5 -42 20 c-51 24 -59 54 -13 47 31 -5 35 -1
22 20 -5 7 -12 9 -16 5z"/>
<path d="M552 1979 c2 -8 -8 -15 -22 -17 -53 -6 -74 -13 -62 -21 7 -4 43 -1
79 6 89 19 95 25 35 38 -24 5 -32 3 -30 -6z"/>
<path d="M2755 1980 c3 -5 8 -10 11 -10 2 0 4 5 4 10 0 6 -5 10 -11 10 -5 0
-7 -4 -4 -10z"/>
<path d="M2940 1977 c0 -8 7 -18 16 -21 8 -3 12 -10 9 -16 -10 -17 5 -50 23
-50 21 -1 52 -23 52 -38 0 -18 22 -26 87 -32 55 -5 60 -4 52 11 -4 9 -24 20
-44 23 -41 8 -47 26 -9 26 22 0 25 2 14 15 -7 8 -16 13 -20 10 -5 -3 -11 -1
-15 5 -3 5 -15 10 -26 10 -10 0 -19 7 -19 15 0 8 -5 15 -11 15 -7 0 -8 -11 -4
-29 6 -26 4 -29 -14 -24 -12 3 -21 11 -21 19 0 7 -6 17 -12 21 -7 4 -18 17
-24 27 -13 25 -34 32 -34 13z"/>
<path d="M3745 1980 c3 -5 8 -10 11 -10 2 0 4 5 4 10 0 6 -5 10 -11 10 -5 0
-7 -4 -4 -10z"/>
<path d="M675 1970 c3 -5 13 -10 21 -10 8 0 14 5 14 10 0 6 -9 10 -21 10 -11
0 -17 -4 -14 -10z"/>
<path d="M2045 1969 c18 -5 33 -5 39 1 7 7 -4 10 -29 9 -40 -1 -40 -1 -10 -10z"/>
<path d="M3800 1971 c0 -6 -8 -11 -17 -11 -17 -1 -17 -1 0 -11 23 -13 70 -3
64 14 -5 15 -47 22 -47 8z"/>
<path d="M3115 1955 c-41 -13 -40 -15 7 -19 18 -1 28 4 31 16 3 10 4 18 4 17
-1 0 -20 -6 -42 -14z"/>
<path d="M3348 1963 c6 -2 18 -2 25 0 6 3 1 5 -13 5 -14 0 -19 -2 -12 -5z"/>
<path d="M3725 1950 c3 -5 8 -10 11 -10 2 0 4 5 4 10 0 6 -5 10 -11 10 -5 0
-7 -4 -4 -10z"/>
<path d="M4370 1956 c0 -2 12 -11 26 -21 20 -13 28 -14 40 -4 12 10 12 14 2
20 -13 9 -68 12 -68 5z"/>
<path d="M2174 1942 c4 -7 15 -12 24 -12 15 -1 15 -2 -2 -15 -28 -21 -10 -35
47 -34 49 1 50 1 20 10 -36 11 -44 29 -13 29 11 0 20 5 20 10 0 6 -15 10 -34
10 -19 0 -42 3 -52 7 -12 4 -15 3 -10 -5z"/>
<path d="M4200 1939 c0 -5 5 -7 10 -4 6 3 10 8 10 11 0 2 -4 4 -10 4 -5 0 -10
-5 -10 -11z"/>
<path d="M4516 1941 c-4 -5 3 -7 14 -4 23 6 26 13 6 13 -8 0 -17 -4 -20 -9z"/>
<path d="M580 1928 c0 -4 6 -8 14 -8 8 0 21 -3 30 -6 10 -4 16 -1 16 8 0 10
-11 15 -30 15 -16 0 -30 -4 -30 -9z"/>
<path d="M2030 1930 c0 -5 13 -10 29 -10 17 0 32 -4 35 -9 7 -11 56 -21 56
-11 0 9 -85 40 -107 40 -7 0 -13 -4 -13 -10z"/>
<path d="M2450 1935 c0 -32 112 -147 127 -131 4 3 -2 13 -13 21 -18 14 -17 14
14 15 17 0 32 5 32 10 0 6 -16 10 -35 10 -22 0 -43 8 -56 21 -24 24 -19 35 9
20 27 -14 39 -14 24 1 -18 18 -102 45 -102 33z"/>
<path d="M2788 1933 c-10 -2 -18 -9 -18 -14 0 -10 0 -10 49 -14 19 -2 40 -11
47 -20 11 -15 15 -15 34 -2 20 14 19 15 -19 21 -22 3 -46 13 -55 21 -8 8 -16
14 -18 14 -2 -1 -11 -3 -20 -6z"/>
<path d="M2875 1930 c-3 -5 -2 -10 4 -10 5 0 13 5 16 10 3 6 2 10 -4 10 -5 0
-13 -4 -16 -10z"/>
<path d="M4065 1930 c3 -5 13 -10 21 -10 8 0 12 5 9 10 -3 6 -13 10 -21 10 -8
0 -12 -4 -9 -10z"/>
<path d="M385 1923 c-11 -3 -24 -9 -29 -14 -17 -15 37 -10 58 6 20 15 12 18
-29 8z"/>
<path d="M3598 1913 c7 -3 16 -2 19 1 4 3 -2 6 -13 5 -11 0 -14 -3 -6 -6z"/>
<path d="M3776 1913 c-3 -4 -1 -12 5 -20 9 -10 8 -13 -1 -13 -8 0 -11 -2 -8
-5 9 -9 38 6 38 20 0 14 -25 27 -34 18z"/>
<path d="M2570 1890 c0 -5 9 -10 20 -10 11 0 20 5 20 10 0 6 -9 10 -20 10 -11
0 -20 -4 -20 -10z"/>
<path d="M2640 1891 c0 -5 9 -11 21 -14 16 -4 18 -3 8 9 -13 16 -29 19 -29 5z"/>
<path d="M3224 1887 c-4 -12 -13 -15 -30 -11 -15 4 -24 2 -24 -5 0 -6 9 -11
20 -11 11 0 21 0 23 -1 29 -8 138 -28 156 -29 39 0 18 10 -50 26 -35 8 -70 22
-76 31 -11 15 -13 15 -19 0z"/>
<path d="M3315 1890 c3 -5 19 -10 36 -10 16 0 29 -4 29 -10 0 -5 7 -10 15 -10
18 0 19 12 3 28 -15 15 -92 16 -83 2z"/>
<path d="M3446 1884 c-4 -9 -4 -19 -1 -22 2 -3 7 3 11 12 4 9 4 19 1 22 -2 3
-7 -3 -11 -12z"/>
<path d="M3670 1896 c0 -2 7 -7 16 -10 8 -3 12 -2 9 4 -6 10 -25 14 -25 6z"/>
<path d="M4110 1885 c0 -8 5 -15 10 -15 6 0 12 0 15 -1 2 0 34 -16 71 -35 36
-19 64 -28 62 -22 -2 7 -23 22 -46 32 -23 11 -42 25 -42 32 0 6 -7 15 -16 18
-28 11 -54 6 -54 -9z"/>
<path d="M4250 1890 c0 -5 7 -10 15 -10 8 0 15 5 15 10 0 6 -7 10 -15 10 -8 0
-15 -4 -15 -10z"/>
<path d="M438 1883 c6 -2 18 -2 25 0 6 3 1 5 -13 5 -14 0 -19 -2 -12 -5z"/>
<path d="M2081 1887 c2 -1 13 -9 24 -17 19 -14 19 -14 6 3 -7 9 -18 17 -24 17
-6 0 -8 -1 -6 -3z"/>
<path d="M3605 1879 c-10 -15 3 -59 18 -58 6 0 28 7 47 14 27 10 30 14 13 14
-12 1 -25 5 -28 11 -11 18 -43 31 -50 19z"/>
<path d="M390 1870 c0 -5 7 -10 15 -10 8 0 15 5 15 10 0 6 -7 10 -15 10 -8 0
-15 -4 -15 -10z"/>
<path d="M495 1870 c3 -5 10 -10 16 -10 5 0 9 5 9 10 0 6 -7 10 -16 10 -8 0
-12 -4 -9 -10z"/>
<path d="M2930 1876 c0 -2 7 -9 15 -16 12 -10 15 -10 15 4 0 9 -7 16 -15 16
-8 0 -15 -2 -15 -4z"/>
<path d="M3960 1870 c0 -5 7 -10 15 -10 8 0 15 5 15 10 0 6 -7 10 -15 10 -8 0
-15 -4 -15 -10z"/>
<path d="M4540 1876 c0 -2 11 -6 25 -8 14 -3 25 -1 25 3 0 5 -11 9 -25 9 -14
0 -25 -2 -25 -4z"/>
<path d="M320 1860 c0 -5 5 -10 10 -10 6 0 10 5 10 10 0 6 -4 10 -10 10 -5 0
-10 -4 -10 -10z"/>
<path d="M2794 1842 c8 -24 -19 -38 -28 -15 -4 9 -13 13 -23 9 -9 -4 -20 -1
-24 6 -4 7 -11 9 -16 5 -9 -9 35 -46 54 -47 7 0 18 -9 25 -20 7 -11 18 -20 25
-20 15 0 17 16 4 24 -18 11 13 56 38 56 33 0 24 6 -22 14 -35 7 -38 5 -33 -12z"/>
<path d="M4345 1850 c-3 -5 -1 -10 4 -10 6 0 11 5 11 10 0 6 -2 10 -4 10 -3 0
-8 -4 -11 -10z"/>
<path d="M4387 1828 c3 -18 10 -34 15 -36 4 -2 8 -10 8 -17 0 -11 6 -12 30 -4
41 15 38 37 -5 45 -33 6 -50 24 -22 24 8 0 7 4 -3 10 -25 16 -30 11 -23 -22z"/>
<path d="M40 1839 c-12 -8 -10 -9 8 -4 21 6 22 4 17 -22 -6 -25 -5 -26 8 -10
8 9 22 17 33 17 24 0 7 17 -26 24 -14 4 -32 1 -40 -5z"/>
<path d="M140 1835 c0 -8 7 -15 15 -15 8 0 15 7 15 15 0 8 -7 15 -15 15 -8 0
-15 -7 -15 -15z"/>
<path d="M3895 1840 c3 -5 11 -10 16 -10 6 0 7 5 4 10 -3 6 -11 10 -16 10 -6
0 -7 -4 -4 -10z"/>
<path d="M365 1830 c-4 -6 0 -10 7 -10 8 -1 6 -6 -6 -15 -11 -8 -18 -17 -15
-19 8 -8 35 -9 53 -1 11 5 21 3 26 -4 5 -9 15 -8 38 6 l31 19 -35 1 c-19 1
-40 5 -47 10 -21 17 -46 23 -52 13z"/>
<path d="M2617 1815 l-28 -25 25 0 c14 0 28 -4 31 -10 16 -26 40 14 28 46 -8
20 -24 17 -56 -11z"/>
<path d="M2880 1835 c0 -11 51 -24 67 -18 15 6 14 8 -7 14 -32 9 -60 11 -60 4z"/>
<path d="M4493 1833 c-24 -9 -13 -21 23 -28 20 -3 38 -5 40 -3 7 7 -51 35 -63
31z"/>
<path d="M3694 1815 c-10 -24 5 -36 29 -24 16 9 22 9 25 0 2 -6 12 -11 22 -11
10 0 24 -12 31 -28 13 -30 55 -56 65 -41 3 5 -2 12 -10 15 -9 3 -16 17 -16 30
0 17 -6 24 -20 24 -22 0 -27 15 -7 24 6 4 -3 4 -22 1 -19 -3 -39 -1 -45 3 -23
18 -47 22 -52 7z"/>
<path d="M320 1810 c0 -5 5 -10 10 -10 6 0 10 5 10 10 0 6 -4 10 -10 10 -5 0
-10 -4 -10 -10z"/>
<path d="M2375 1810 c-4 -6 7 -10 25 -10 18 0 29 4 25 10 -3 6 -15 10 -25 10
-10 0 -22 -4 -25 -10z"/>
<path d="M2460 1805 c0 -13 4 -14 20 -5 11 6 20 13 20 15 0 3 -9 5 -20 5 -11
0 -20 -7 -20 -15z"/>
<path d="M2850 1811 c0 -5 14 -14 31 -22 18 -7 43 -23 57 -36 36 -33 64 -31
60 5 -3 23 -7 27 -32 25 -16 -1 -40 6 -54 17 -25 21 -62 27 -62 11z"/>
<path d="M2990 1811 c0 -3 5 -13 11 -21 7 -11 12 -12 15 -3 3 7 18 9 42 6 34
-6 36 -5 20 10 -15 15 -88 22 -88 8z"/>
<path d="M3225 1810 c3 -5 16 -10 28 -9 21 0 21 1 2 9 -28 12 -37 12 -30 0z"/>
<path d="M3375 1800 c-21 -8 -21 -9 30 -25 21 -6 19 -43 -2 -47 -32 -7 -61 12
-55 36 3 12 1 17 -4 13 -5 -5 -9 -12 -9 -15 0 -4 -4 -13 -8 -19 -13 -20 1 -33
34 -33 16 0 29 -4 29 -10 0 -20 19 -9 32 17 9 18 24 29 46 34 19 4 39 12 45
19 9 9 5 11 -20 5 -21 -4 -33 -3 -33 4 0 6 -12 11 -26 11 -14 0 -23 4 -19 10
7 12 -12 12 -40 0z"/>
<path d="M3125 1790 c3 -5 17 -10 29 -10 13 0 29 -7 36 -15 7 -8 18 -15 24
-15 6 1 -2 12 -19 25 -29 24 -83 35 -70 15z"/>
<path d="M127 1783 c-15 -4 -16 -8 -6 -19 10 -12 8 -18 -7 -29 -10 -8 -15 -15
-10 -15 5 0 17 7 27 16 12 11 23 13 36 6 20 -10 43 -6 43 9 0 5 -6 9 -14 9 -7
0 -19 7 -26 15 -7 8 -15 14 -19 14 -3 -1 -14 -3 -24 -6z"/>
<path d="M3935 1781 c-7 -12 19 -21 58 -21 18 0 27 4 22 9 -15 13 -73 22 -80
12z"/>
<path d="M4290 1780 c0 -5 7 -7 15 -4 8 4 15 8 15 10 0 2 -7 4 -15 4 -8 0 -15
-4 -15 -10z"/>
<path d="M31 1743 c1 -23 3 -29 6 -15 2 12 11 22 20 22 20 0 11 24 -10 28 -14
3 -17 -4 -16 -35z"/>
<path d="M2250 1771 c0 -18 12 -41 21 -41 15 0 10 37 -6 44 -8 3 -15 1 -15 -3z"/>
<path d="M2352 1772 c-8 -6 1 -13 30 -22 24 -8 47 -20 51 -27 4 -7 17 -13 28
-13 19 0 19 1 2 24 -10 13 -24 21 -32 18 -8 -3 -12 -1 -8 5 11 17 -48 29 -71
15z"/>
<path d="M3638 1766 c-24 -18 -22 -26 5 -26 13 0 28 -5 35 -12 23 -23 24 1 1
26 -21 21 -26 23 -41 12z"/>
<path d="M4230 1770 c0 -5 5 -10 10 -10 6 0 10 5 10 10 0 6 -4 10 -10 10 -5 0
-10 -4 -10 -10z"/>
<path d="M2755 1760 c-19 -7 -19 -7 2 -18 16 -9 24 -9 29 -1 10 16 -8 28 -31
19z"/>
<path d="M3106 1762 c-3 -5 -20 -12 -38 -16 l-33 -6 30 -24 c31 -25 50 -25 41
1 -4 9 -1 22 5 30 7 7 9 16 6 19 -3 3 -8 1 -11 -4z"/>
<path d="M4150 1755 c7 -8 16 -15 21 -15 5 0 9 7 9 15 0 9 -9 15 -21 15 -18 0
-19 -2 -9 -15z"/>
<path d="M4703 1763 c-12 -2 -24 -10 -27 -18 -6 -16 16 -11 49 12 20 13 18 14
-22 6z"/>
<path d="M250 1752 c0 -14 26 -33 34 -24 4 4 13 0 19 -9 7 -9 22 -19 34 -23
41 -13 15 21 -30 40 -23 10 -45 20 -49 22 -5 2 -8 -1 -8 -6z"/>
<path d="M400 1750 c0 -5 4 -10 9 -10 5 0 18 -3 28 -7 17 -6 17 -6 1 10 -18
19 -38 22 -38 7z"/>
<path d="M2305 1750 c3 -5 8 -10 11 -10 2 0 4 5 4 10 0 6 -5 10 -11 10 -5 0
-7 -4 -4 -10z"/>
<path d="M4035 1750 c3 -5 10 -10 16 -10 5 0 9 5 9 10 0 6 -7 10 -16 10 -8 0
-12 -4 -9 -10z"/>
<path d="M4200 1750 c0 -5 7 -10 16 -10 8 0 12 5 9 10 -3 6 -10 10 -16 10 -5
0 -9 -4 -9 -10z"/>
<path d="M4360 1745 c-17 -10 -40 -12 -72 -8 -40 5 -48 3 -48 -10 0 -25 -57
-52 -76 -36 -8 6 -18 9 -21 5 -4 -4 -1 -11 6 -15 7 -5 10 -14 7 -20 -9 -13 6
-15 20 -2 16 16 87 36 129 36 31 0 39 -4 37 -16 -2 -15 22 -32 66 -44 37 -11
25 13 -14 25 l-36 12 28 19 c29 19 62 17 76 -5 5 -7 8 -6 8 4 0 15 -61 70 -77
70 -4 -1 -19 -7 -33 -15z"/>
<path d="M4630 1750 c-13 -8 -12 -10 3 -10 9 0 17 5 17 10 0 12 -1 12 -20 0z"/>
<path d="M2690 1736 c0 -7 7 -19 15 -26 8 -7 15 -10 15 -6 0 8 47 -21 76 -47
14 -12 24 -15 29 -8 3 6 3 11 -2 11 -4 0 -30 20 -58 45 -50 46 -75 56 -75 31z"/>
<path d="M4510 1740 c0 -5 7 -10 16 -10 8 0 12 5 9 10 -3 6 -10 10 -16 10 -5
0 -9 -4 -9 -10z"/>
<path d="M2549 1727 c14 -17 4 -27 -26 -27 -16 0 -23 -6 -23 -20 0 -11 -7 -20
-15 -20 -20 0 -19 -17 3 -28 28 -15 80 -25 62 -12 -11 7 -3 8 30 4 l45 -7 -25
26 c-14 15 -34 27 -45 27 -18 0 -18 2 5 20 14 11 37 23 52 26 41 9 23 24 -29
24 -37 0 -43 -3 -34 -13z"/>
<path d="M2836 1726 c3 -9 11 -16 16 -16 13 0 5 23 -10 28 -7 2 -10 -2 -6 -12z"/>
<path d="M3280 1724 c0 -8 5 -12 10 -9 6 3 10 10 10 16 0 5 -4 9 -10 9 -5 0
-10 -7 -10 -16z"/>
<path d="M3720 1719 c0 -11 5 -17 10 -14 6 4 26 1 46 -5 53 -18 52 -5 -1 19
-58 26 -55 26 -55 0z"/>
<path d="M3897 1723 c11 -33 16 -37 23 -17 9 23 4 34 -15 34 -9 0 -12 -6 -8
-17z"/>
<path d="M4100 1731 c0 -5 7 -12 16 -15 14 -5 15 -4 4 9 -14 17 -20 19 -20 6z"/>
<path d="M2895 1707 c10 -15 20 -25 23 -22 3 3 -5 16 -17 28 l-23 22 17 -28z"/>
<path d="M3148 1723 c7 -3 16 -2 19 1 4 3 -2 6 -13 5 -11 0 -14 -3 -6 -6z"/>
<path d="M3545 1720 c-8 -13 5 -13 25 0 13 8 13 10 -2 10 -9 0 -20 -4 -23 -10z"/>
<path d="M2790 1715 c0 -2 9 -9 20 -15 16 -9 18 -8 14 5 -5 13 -34 22 -34 10z"/>
<path d="M3590 1711 c0 -12 42 -42 49 -36 5 6 -29 45 -41 45 -4 0 -8 -4 -8 -9z"/>
<path d="M4030 1710 c0 -5 5 -10 10 -10 6 0 10 5 10 10 0 6 -4 10 -10 10 -5 0
-10 -4 -10 -10z"/>
<path d="M4560 1710 c0 -12 -35 -31 -75 -41 -25 -6 -20 -8 25 -8 81 0 90 -1
90 -10 0 -5 -10 -12 -22 -16 -18 -6 -12 -9 31 -16 62 -11 71 -7 42 17 -11 10
-18 21 -15 26 9 14 34 9 41 -9 10 -27 40 -45 120 -75 69 -25 72 -25 62 -7 -6
13 -17 18 -26 15 -20 -8 -39 4 -23 14 7 4 9 13 5 20 -6 10 -10 9 -17 -4 -5 -9
-16 -16 -24 -16 -23 0 -84 53 -84 72 0 14 5 15 32 7 42 -12 88 -12 88 0 0 13
-59 41 -86 41 -13 0 -39 -9 -59 -20 -55 -31 -106 -25 -73 8 9 9 7 12 -10 12
-12 0 -22 -4 -22 -10z"/>
<path d="M2932 1678 c-17 -47 -16 -48 23 -48 19 0 35 -4 35 -9 0 -5 8 -7 18
-4 12 3 30 -7 50 -27 30 -30 32 -30 61 -15 37 19 55 19 70 1 6 -8 21 -16 32
-19 16 -4 13 3 -15 31 l-36 36 31 28 c20 19 35 26 43 20 6 -5 26 -12 44 -15
24 -5 32 -3 32 8 0 19 -25 31 -77 38 -30 3 -43 1 -43 -7 0 -18 -43 -56 -64
-56 -10 0 -29 9 -43 20 -14 11 -36 20 -49 20 -12 0 -24 5 -26 10 -2 6 -19 13
-38 16 -33 5 -36 4 -48 -28z m88 -18 c0 -12 7 -20 16 -20 10 0 14 6 10 15 -9
25 12 17 51 -18 21 -20 33 -39 29 -45 -10 -17 -36 -15 -55 6 -21 22 -57 42
-75 42 -21 0 -31 21 -15 31 23 15 39 10 39 -11z"/>
<path d="M3080 1610 c0 -5 5 -10 10 -10 6 0 10 5 10 10 0 6 -4 10 -10 10 -5 0
-10 -4 -10 -10z"/>
<path d="M0 1690 c0 -5 4 -10 9 -10 6 0 13 5 16 10 3 6 -1 10 -9 10 -9 0 -16
-4 -16 -10z"/>
<path d="M40 1690 c0 -5 5 -10 10 -10 6 0 10 5 10 10 0 6 -4 10 -10 10 -5 0
-10 -4 -10 -10z"/>
<path d="M192 1681 c-13 -9 -20 -20 -16 -24 12 -12 24 -8 24 7 0 8 6 16 13 19
6 2 10 7 7 10 -3 3 -16 -2 -28 -12z"/>
<path d="M3670 1700 c-16 -38 5 -79 41 -80 9 0 22 -7 29 -15 7 -8 16 -12 21
-9 14 8 10 24 -5 24 -8 0 -18 5 -21 10 -11 18 21 11 42 -10 21 -19 21 -19 63
1 23 11 48 18 56 15 22 -8 17 -36 -7 -36 -11 0 -17 -4 -14 -10 3 -5 26 -10 51
-10 l45 0 -25 24 c-29 26 -33 42 -13 49 24 10 -22 7 -48 -3 -49 -19 -113 -15
-145 8 -16 12 -36 22 -44 22 -8 0 -17 6 -19 13 -3 6 -6 10 -7 7z m45 -50 c3
-5 -3 -10 -14 -10 -12 0 -21 5 -21 10 0 6 6 10 14 10 8 0 18 -4 21 -10z"/>
<path d="M3525 1660 c4 -61 49 -75 98 -30 24 23 15 40 -12 23 -15 -9 -23 -7
-46 13 -36 31 -42 30 -40 -6z m45 -32 c0 -6 -7 -5 -15 2 -8 7 -15 17 -15 22 0
6 7 5 15 -2 8 -7 15 -17 15 -22z"/>
<path d="M4010 1679 c11 -7 12 -11 3 -17 -7 -4 5 -7 26 -7 52 0 46 29 -7 32
-26 1 -32 -1 -22 -8z"/>
<path d="M4887 1678 c-16 -12 -15 -15 8 -40 25 -27 36 -53 13 -30 -7 7 -19 12
-27 12 -11 0 -9 -5 7 -20 27 -26 42 -25 42 0 0 11 7 23 15 26 8 4 12 10 9 16
-3 5 -12 7 -19 4 -17 -6 -39 19 -30 34 8 13 3 13 -18 -2z"/>
<path d="M2713 1662 c-23 -3 -25 -6 -28 -53 -1 -15 -6 -35 -10 -45 -4 -11 -10
-28 -12 -38 -2 -11 -8 -25 -13 -31 -13 -15 -2 -25 27 -25 14 0 23 -6 23 -16 0
-8 5 -12 10 -9 6 4 8 10 5 15 -3 5 0 12 6 15 5 4 9 21 8 39 -2 17 1 37 5 45 5
8 3 16 -5 21 -24 15 9 42 43 35 21 -5 28 -3 28 9 0 9 -8 16 -20 16 -11 0 -20
4 -20 9 0 12 -20 18 -47 13z m13 -48 c-18 -18 -26 -18 -26 0 0 15 20 26 33 19
4 -2 1 -11 -7 -19z"/>
<path d="M2868 1663 c-10 -2 -18 -7 -18 -10 0 -7 33 -32 43 -33 4 0 7 11 7 25
0 25 -1 26 -32 18z"/>
<path d="M310 1640 c26 -21 54 -18 80 6 13 13 11 13 -19 3 -26 -9 -38 -9 -52
0 -30 18 -36 12 -9 -9z"/>
<path d="M3340 1652 c0 -4 4 -12 9 -17 5 -6 11 -21 13 -35 2 -20 8 -24 28 -22
22 2 23 1 9 -10 -18 -15 -31 -56 -19 -63 19 -12 37 7 32 32 -4 23 -2 25 19 20
13 -3 33 -2 44 3 17 6 14 9 -17 15 -40 8 -52 25 -18 25 11 0 20 3 20 8 0 4
-19 7 -42 7 -35 0 -45 4 -53 23 -9 21 -25 30 -25 14z"/>
<path d="M30 1630 c0 -6 7 -10 15 -10 19 0 19 6 0 14 -8 3 -15 1 -15 -4z"/>
<path d="M2410 1620 c-13 -9 -13 -11 0 -20 24 -16 40 -12 40 10 0 22 -16 26
-40 10z"/>
<path d="M3220 1614 c0 -8 5 -12 10 -9 6 3 10 10 10 16 0 5 -4 9 -10 9 -5 0
-10 -7 -10 -16z"/>
<path d="M4162 1615 c-15 -17 -42 -20 -42 -4 0 6 -14 -3 -32 -20 -21 -21 -35
-28 -42 -21 -12 12 -56 14 -56 2 0 -7 91 -52 106 -52 4 0 16 -8 27 -17 19 -17
19 -17 12 5 -6 22 -5 23 14 12 13 -7 27 -7 37 -2 13 7 10 10 -16 15 -26 6 -31
11 -28 29 2 17 15 27 45 38 40 13 44 13 70 -6 15 -11 36 -23 46 -27 15 -6 16
-4 6 14 -15 29 -4 35 27 15 14 -10 28 -16 30 -13 14 13 -54 38 -118 43 -58 4
-76 2 -86 -11z"/>
<path d="M2596 1585 c-21 -20 -36 -39 -32 -43 4 -4 16 3 26 16 10 12 25 22 34
22 9 0 16 8 16 20 0 11 -1 20 -2 20 -2 0 -21 -16 -42 -35z"/>
<path d="M4020 1610 c0 -5 4 -10 9 -10 6 0 13 5 16 10 3 6 -1 10 -9 10 -9 0
-16 -4 -16 -10z"/>
<path d="M4452 1608 c7 -19 38 -22 38 -4 0 10 -9 16 -21 16 -12 0 -19 -5 -17
-12z"/>
<path d="M5060 1610 c-8 -5 -30 -10 -47 -10 -18 0 -33 -4 -33 -9 0 -5 -9 -12
-19 -16 -10 -3 -21 -15 -24 -25 -3 -13 -14 -20 -29 -20 -17 0 -19 -3 -9 -9 7
-5 9 -11 4 -14 -6 -4 -25 5 -44 19 -26 19 -42 24 -66 20 -21 -3 -38 0 -48 10
-12 13 -19 13 -50 0 -33 -14 -35 -14 -33 2 2 14 -4 16 -31 14 -19 -1 -38 3
-42 10 -6 9 -11 9 -23 -1 -8 -7 -24 -10 -36 -6 -11 4 -20 2 -20 -4 0 -7 -19
-9 -52 -6 -41 4 -49 2 -40 -7 13 -13 71 -20 86 -11 14 9 86 14 86 6 0 -4 -14
-20 -32 -35 -18 -15 -29 -30 -26 -33 7 -7 107 -11 128 -4 11 3 14 -3 13 -18
-2 -18 2 -23 20 -23 15 0 26 -10 36 -31 9 -21 28 -38 55 -50 47 -21 74 -54 51
-63 -8 -3 -15 -12 -15 -21 0 -11 -16 -3 -52 25 -44 35 -57 41 -92 38 -27 -2
-41 -8 -41 -17 0 -20 52 -33 59 -15 7 19 35 18 43 -1 7 -19 73 -54 91 -48 6 3
12 0 12 -6 0 -6 9 -11 19 -11 11 0 34 -15 52 -33 32 -33 33 -33 52 -14 15 15
16 21 6 33 -7 8 -17 13 -24 11 -6 -3 -19 1 -30 9 -10 8 -31 14 -47 14 -31 0
-33 3 -18 31 6 10 21 19 33 19 16 0 22 6 23 25 2 20 -3 25 -21 25 -13 0 -27
-4 -30 -10 -3 -5 -9 -10 -13 -10 -12 0 -91 78 -85 84 3 3 -8 13 -26 23 -42 25
-43 46 -1 23 15 -8 21 -6 30 10 9 18 8 20 -17 22 -15 0 -36 1 -45 0 -12 -1
-18 5 -18 19 0 20 4 21 53 15 28 -4 77 -19 107 -34 54 -27 128 -36 141 -18 4
5 -1 21 -9 37 -21 35 -10 47 22 25 32 -21 58 -21 28 0 -12 8 -22 19 -22 24 0
11 70 31 81 24 5 -3 6 2 3 10 -7 19 -5 18 -24 6z m-419 -80 c10 -6 19 -18 19
-27 0 -13 -3 -14 -11 -6 -7 7 -25 9 -40 6 -22 -4 -29 -2 -29 10 0 25 30 33 61
17z"/>
<path d="M278 1603 c7 -3 16 -2 19 1 4 3 -2 6 -13 5 -11 0 -14 -3 -6 -6z"/>
<path d="M2823 1584 c-27 -18 -30 -23 -15 -28 9 -3 23 -9 31 -12 10 -5 11 -1
6 16 -6 20 -5 22 11 15 40 -16 57 -18 50 -7 -4 7 -16 12 -26 12 -10 0 -20 6
-22 13 -2 10 -12 7 -35 -9z"/>
<path d="M2472 1588 c-18 -18 -14 -28 8 -28 11 0 20 6 20 14 0 21 -15 27 -28
14z"/>
<path d="M2970 1579 c0 -12 -7 -19 -20 -19 -24 0 -25 -9 -5 -36 13 -17 14 -17
15 -1 0 30 17 18 17 -12 0 -30 17 -61 34 -61 14 0 10 39 -7 65 -20 31 -11 45
29 45 39 0 26 14 -25 28 -34 9 -38 9 -38 -9z"/>
<path d="M2285 1581 c-17 -7 -15 -9 13 -13 20 -3 31 -1 29 6 -5 14 -18 16 -42
7z"/>
<path d="M3280 1566 l-35 -10 29 -4 c16 -2 33 1 39 7 16 16 5 19 -33 7z"/>
<path d="M3780 1571 c0 -5 9 -11 21 -14 12 -3 19 -10 16 -15 -4 -4 0 -21 8
-36 14 -26 13 -27 -5 -21 -14 5 -20 2 -20 -9 0 -9 -5 -16 -11 -16 -6 0 -9 9
-6 20 3 11 2 20 -2 20 -3 0 -12 -9 -19 -20 -7 -11 -19 -20 -28 -20 -14 0 -15
-2 -3 -17 11 -13 11 -17 2 -20 -17 -6 -16 -20 1 -26 10 -4 13 -1 9 9 -3 7 0
14 6 14 6 0 11 -4 11 -9 0 -5 9 -11 20 -14 13 -3 20 0 20 9 0 8 -4 14 -10 14
-5 0 -10 5 -10 10 0 6 12 10 28 10 16 0 32 8 39 19 10 15 22 18 68 16 48 -3
54 -1 44 11 -6 8 -18 14 -25 14 -8 0 -14 5 -14 11 0 8 -4 8 -12 1 -14 -11 -68
-5 -68 8 0 10 26 20 51 20 11 0 18 4 14 10 -3 5 -12 7 -20 4 -8 -3 -29 1 -46
10 -36 18 -59 21 -59 7z"/>
<path d="M2620 1550 c0 -5 5 -10 10 -10 6 0 10 5 10 10 0 6 -4 10 -10 10 -5 0
-10 -4 -10 -10z"/>
<path d="M2740 1545 c0 -13 4 -14 20 -5 11 6 20 13 20 15 0 3 -9 5 -20 5 -11
0 -20 -7 -20 -15z"/>
<path d="M4335 1540 c5 -15 2 -20 -12 -20 -16 -1 -15 -3 6 -20 13 -11 31 -20
40 -19 11 0 10 3 -6 11 -28 13 -30 28 -4 28 23 0 45 -25 36 -41 -5 -8 1 -9 23
-4 20 4 43 1 65 -10 40 -19 86 -24 85 -10 -1 6 -25 15 -55 21 -29 6 -67 20
-83 32 -16 12 -33 22 -38 22 -5 0 -15 7 -22 15 -19 23 -43 19 -35 -5z"/>
<path d="M3103 1534 c-7 -19 5 -34 28 -34 10 0 19 -4 19 -10 0 -12 -7 -12 -48
-1 -40 12 -62 5 -62 -19 0 -21 29 -35 44 -20 13 13 63 13 71 0 3 -5 12 -10 18
-10 7 0 4 7 -5 14 -22 16 -23 26 -3 26 8 0 15 5 15 10 0 6 -4 10 -10 10 -5 0
-10 8 -10 19 0 23 -49 36 -57 15z"/>
<path d="M3460 1535 c0 -10 10 -15 28 -15 26 1 26 1 8 15 -25 19 -36 19 -36 0z"/>
<path d="M2420 1533 c-14 -3 -29 -9 -35 -15 -7 -8 -5 -9 8 -5 12 5 17 1 17
-12 0 -14 5 -18 20 -14 14 4 20 0 20 -11 0 -13 4 -15 19 -7 21 12 31 5 31 -20
0 -10 6 -22 13 -26 24 -14 27 -51 6 -76 -10 -12 -18 -16 -19 -9 0 17 -20 15
-20 -3 0 -8 -4 -15 -10 -15 -5 0 -10 -5 -10 -11 0 -8 4 -8 14 0 7 6 20 9 28 6
8 -3 23 3 33 15 17 19 19 19 31 2 7 -9 16 -13 21 -8 4 5 3 11 -3 13 -17 6 -4
50 23 77 22 23 27 24 40 10 12 -12 13 -17 3 -30 -7 -8 -11 -17 -8 -19 9 -9 38
7 38 20 0 7 3 21 7 31 4 11 3 15 -4 11 -6 -4 -17 0 -24 9 -8 10 -21 13 -36 9
-13 -3 -23 -2 -23 2 0 10 -52 9 -68 -1 -8 -5 -12 0 -12 12 0 11 -7 25 -15 32
-13 11 -13 15 -3 21 10 7 10 9 -2 9 -8 0 -24 2 -35 4 -11 2 -31 2 -45 -1z
m163 -118 c-3 -8 -9 -15 -14 -15 -10 0 -12 24 -3 33 11 11 24 -3 17 -18z"/>
<path d="M2592 1529 c2 -7 10 -15 17 -17 8 -3 12 1 9 9 -2 7 -10 15 -17 17 -8
3 -12 -1 -9 -9z"/>
<path d="M5100 1530 c0 -5 5 -10 10 -10 6 0 10 5 10 10 0 6 -4 10 -10 10 -5 0
-10 -4 -10 -10z"/>
<path d="M2825 1520 c4 -7 1 -16 -6 -21 -10 -6 -3 -9 21 -10 19 0 29 -3 23 -6
-18 -7 -16 -23 2 -23 8 0 15 -4 15 -10 0 -17 26 -11 44 9 11 13 14 21 7 26 -6
3 -14 -1 -17 -9 -3 -9 -12 -16 -20 -16 -17 0 -18 17 -1 23 23 8 -8 42 -43 45
-23 2 -30 0 -25 -8z"/>
<path d="M4215 1520 c-3 -5 1 -20 10 -34 13 -20 23 -24 67 -23 36 1 54 -4 63
-16 13 -18 25 -22 25 -8 0 16 -84 64 -112 64 -17 0 -28 6 -28 14 0 15 -16 17
-25 3z"/>
<path d="M3245 1510 c-3 -5 -2 -10 4 -10 5 0 15 -16 21 -35 6 -19 16 -35 21
-35 12 0 11 17 -2 41 -7 15 -7 24 2 35 9 11 7 14 -14 14 -14 0 -29 -4 -32 -10z"/>
<path d="M337 1499 c7 -7 15 -10 18 -7 3 3 -2 9 -12 12 -14 6 -15 5 -6 -5z"/>
<path d="M2321 1486 c-11 -13 -11 -20 -3 -28 8 -8 13 -7 18 5 10 27 0 41 -15
23z"/>
<path d="M2570 1490 c0 -5 5 -10 11 -10 5 0 7 5 4 10 -3 6 -8 10 -11 10 -2 0
-4 -4 -4 -10z"/>
<path d="M2740 1489 c0 -5 5 -7 10 -4 6 3 10 8 10 11 0 2 -4 4 -10 4 -5 0 -10
-5 -10 -11z"/>
<path d="M3510 1491 c0 -6 5 -13 10 -16 6 -3 10 -14 10 -23 0 -14 10 -17 59
-17 49 0 64 -4 85 -24 14 -14 26 -30 26 -38 0 -7 5 -13 11 -13 7 0 8 7 4 18
-4 9 -10 30 -13 45 -5 31 -35 50 -93 61 -28 5 -38 3 -43 -9 -8 -21 -23 -19
-29 5 -5 20 -27 28 -27 11z"/>
<path d="M4065 1490 c3 -5 8 -10 11 -10 2 0 4 5 4 10 0 6 -5 10 -11 10 -5 0
-7 -4 -4 -10z"/>
<path d="M3980 1470 c0 -5 5 -10 10 -10 6 0 10 -7 10 -15 0 -8 5 -15 10 -15
13 0 13 6 0 31 -11 20 -30 26 -30 9z"/>
<path d="M5055 1470 c27 -12 43 -12 25 0 -8 5 -22 9 -30 9 -10 0 -8 -3 5 -9z"/>
<path d="M4857 1454 c2 -7 -5 -17 -16 -23 -16 -9 -22 -7 -34 9 -16 23 -27 17
-20 -11 7 -24 40 -39 85 -39 31 0 31 0 13 20 -14 16 -16 23 -7 32 17 17 15 24
-7 24 -11 0 -17 -6 -14 -12z"/>
<path d="M355 1450 c-3 -5 1 -10 9 -10 9 0 16 5 16 10 0 6 -4 10 -9 10 -6 0
-13 -4 -16 -10z"/>
<path d="M2726 1430 l-29 -30 27 0 c18 0 26 4 23 13 -2 6 2 20 11 30 26 29 -1
18 -32 -13z"/>
<path d="M2938 1430 c-15 -21 -28 -28 -40 -25 -14 5 -17 1 -15 -24 2 -36 19
-39 47 -11 11 11 30 20 43 19 21 0 21 -1 2 -9 -18 -7 -17 -8 9 -15 21 -6 31
-4 37 8 5 9 17 13 29 10 11 -3 32 -2 47 2 l28 7 -25 13 c-14 7 -37 11 -52 8
-20 -4 -29 -1 -34 11 -3 9 -12 16 -20 16 -8 0 -14 5 -14 10 0 19 -20 10 -42
-20z"/>
<path d="M3860 1450 c0 -5 5 -10 10 -10 6 0 10 5 10 10 0 6 -4 10 -10 10 -5 0
-10 -4 -10 -10z"/>
<path d="M3334 1435 c22 -17 46 -20 46 -6 0 5 -10 11 -22 15 -37 9 -44 6 -24
-9z"/>
<path d="M2394 1428 c-6 -7 -10 -24 -10 -38 1 -27 35 -90 48 -90 13 0 9 9 -12
33 -26 27 -24 80 3 85 22 4 35 -27 16 -39 -11 -6 -11 -11 -1 -21 10 -10 18 -7
39 15 25 24 26 28 12 42 -22 22 -82 30 -95 13z"/>
<path d="M2809 1433 c-9 -2 -23 -21 -31 -42 -14 -34 -14 -39 1 -48 12 -7 20
-6 30 4 7 8 22 12 32 10 21 -6 25 3 9 19 -8 8 -6 15 4 23 31 26 2 47 -45 34z"/>
<path d="M4230 1430 c0 -5 7 -10 15 -10 8 0 15 5 15 10 0 6 -7 10 -15 10 -8 0
-15 -4 -15 -10z"/>
<path d="M4412 1411 c11 -17 88 -26 88 -10 0 5 -3 9 -7 9 -5 1 -27 5 -50 9
-36 7 -40 6 -31 -8z"/>
<path d="M3242 1407 c-24 -11 -24 -35 -1 -28 8 2 26 3 42 2 33 -2 35 10 4 25
-16 7 -31 7 -45 1z"/>
<path d="M4290 1411 c0 -5 6 -11 13 -13 17 -7 38 2 31 13 -7 12 -44 12 -44 0z"/>
<path d="M4928 1403 c7 -3 16 -2 19 1 4 3 -2 6 -13 5 -11 0 -14 -3 -6 -6z"/>
<path d="M4235 1391 c-3 -5 -1 -12 5 -16 14 -9 12 -45 -2 -46 -27 -1 38 -20
81 -23 26 -2 54 -7 64 -11 29 -12 19 13 -11 29 -17 9 -45 13 -70 10 l-42 -4 0
35 c0 33 -12 46 -25 26z"/>
<path d="M4356 1386 c3 -8 12 -12 20 -9 17 6 9 23 -11 23 -8 0 -12 -6 -9 -14z"/>
<path d="M3180 1376 c0 -11 19 -27 70 -61 40 -26 42 -30 23 -33 -37 -5 -26
-22 13 -22 31 0 36 -3 31 -20 -4 -16 0 -20 20 -20 16 0 23 4 19 13 -3 6 -9 20
-12 30 -4 9 -12 17 -19 17 -6 0 -20 9 -30 20 -10 11 -23 20 -30 20 -6 0 -20 8
-31 18 -35 32 -54 45 -54 38z"/>
<path d="M3800 1370 c0 -5 -9 -19 -20 -30 -16 -16 -24 -18 -39 -9 -11 8 -29 9
-47 4 -24 -7 -26 -9 -9 -13 29 -6 51 -52 25 -52 -5 0 -10 7 -10 15 0 8 -5 15
-11 15 -7 0 -9 -10 -5 -26 l7 -26 -33 19 c-18 10 -35 21 -38 24 -3 3 -18 9
-33 13 -15 4 -25 10 -22 15 6 10 -42 24 -55 16 -13 -8 12 -65 30 -66 8 -1 33
-2 55 -3 61 -3 93 -29 101 -83 5 -35 9 -42 16 -29 5 9 7 20 4 25 -8 13 25 38
61 46 25 5 36 2 52 -14 12 -12 33 -21 49 -20 25 0 25 1 6 9 -27 11 -42 32 -26
38 7 2 12 8 12 13 0 11 -47 12 -54 0 -3 -4 -22 -8 -43 -7 -34 1 -38 3 -35 25
5 31 70 90 100 91 13 0 20 4 17 10 -3 6 -17 10 -31 10 -13 0 -24 -4 -24 -10z
m-80 -134 c0 -3 -4 -8 -10 -11 -5 -3 -10 -1 -10 4 0 6 5 11 10 11 6 0 10 -2
10 -4z"/>
<path d="M4128 1373 c-10 -2 -18 -11 -18 -19 0 -22 -58 -42 -102 -37 -25 4
-38 2 -38 -6 0 -6 18 -11 45 -11 42 0 58 -11 35 -25 -5 -3 -6 -13 -3 -22 5
-13 2 -15 -18 -9 -13 4 -35 10 -48 13 l-23 6 18 -28 c10 -15 20 -23 22 -17 2
7 15 9 33 5 22 -4 29 -2 29 11 0 17 12 21 24 9 4 -4 14 -8 22 -8 7 0 13 -2 12
-5 -1 -3 4 -15 11 -27 15 -29 35 -30 26 -2 -5 15 -4 19 4 15 6 -4 11 -1 11 6
0 7 -9 19 -20 26 -11 7 -20 21 -20 31 0 13 -8 21 -22 23 l-23 3 24 14 c13 7
26 9 30 5 3 -5 24 -10 46 -10 22 -1 33 1 25 4 -8 3 -18 10 -22 17 -4 7 -19 10
-33 7 -15 -2 -25 0 -25 7 0 6 11 11 25 11 14 0 25 5 25 10 0 10 -21 11 -52 3z"/>
<path d="M4995 1370 c3 -5 10 -10 16 -10 5 0 9 5 9 10 0 6 -7 10 -16 10 -8 0
-12 -4 -9 -10z"/>
<path d="M123 1360 c-23 -9 -32 -40 -13 -40 6 0 10 5 10 12 0 9 3 9 12 0 19
-19 28 -14 28 13 0 27 -3 28 -37 15z"/>
<path d="M2607 1364 c-3 -5 1 -15 9 -22 16 -14 18 -5 5 17 -5 7 -11 9 -14 5z"/>
<path d="M2690 1362 c0 -14 24 -32 42 -32 16 0 17 3 8 20 -10 19 -50 29 -50
12z"/>
<path d="M70 1349 c0 -5 5 -7 10 -4 6 3 10 8 10 11 0 2 -4 4 -10 4 -5 0 -10
-5 -10 -11z"/>
<path d="M3356 1353 c-12 -12 -6 -33 9 -33 8 0 15 6 15 14 0 17 -14 28 -24 19z"/>
<path d="M4365 1350 c3 -5 10 -10 16 -10 5 0 9 5 9 10 0 6 -7 10 -16 10 -8 0
-12 -4 -9 -10z"/>
<path d="M5050 1345 c0 -8 7 -15 15 -15 8 0 15 7 15 15 0 8 -7 15 -15 15 -8 0
-15 -7 -15 -15z"/>
<path d="M3870 1334 c0 -14 3 -14 15 -4 8 7 15 14 15 16 0 2 -7 4 -15 4 -8 0
-15 -7 -15 -16z"/>
<path d="M2660 1329 c0 -5 5 -7 10 -4 6 3 10 8 10 11 0 2 -4 4 -10 4 -5 0 -10
-5 -10 -11z"/>
<path d="M3450 1330 c0 -5 7 -10 16 -10 8 0 12 5 9 10 -3 6 -10 10 -16 10 -5
0 -9 -4 -9 -10z"/>
<path d="M4443 1326 c-31 -14 -29 -23 5 -23 55 -1 141 -16 136 -24 -3 -5 6 -9
20 -9 18 0 24 4 20 14 -4 9 -27 17 -62 21 -32 4 -66 12 -77 19 -14 8 -27 9
-42 2z"/>
<path d="M3920 1320 c0 -5 5 -10 10 -10 6 0 10 5 10 10 0 6 -4 10 -10 10 -5 0
-10 -4 -10 -10z"/>
<path d="M3774 1291 c3 -5 15 -11 26 -14 17 -4 19 -3 9 9 -12 15 -44 20 -35 5z"/>
<path d="M4263 1276 c29 -26 47 -33 47 -17 0 12 -21 28 -50 35 l-25 7 28 -25z"/>
<path d="M4420 1259 c0 -14 -5 -19 -14 -16 -9 4 -12 0 -9 -13 3 -10 0 -21 -6
-24 -6 -4 -11 0 -11 9 0 9 -5 13 -11 10 -7 -5 -5 -12 4 -23 8 -10 17 -26 18
-36 4 -19 5 -19 22 -1 12 11 16 26 13 41 -3 12 -2 26 4 29 13 8 13 45 0 45 -5
0 -10 -9 -10 -21z m0 -64 c0 -8 -4 -15 -10 -15 -5 0 -10 7 -10 15 0 8 5 15 10
15 6 0 10 -7 10 -15z"/>
<path d="M4527 1243 c5 -14 1 -15 -26 -10 -23 5 -31 3 -29 -5 6 -17 49 -27 70
-16 9 4 28 4 42 -2 24 -9 25 -12 14 -37 -6 -15 -15 -32 -19 -37 -4 -5 8 -25
27 -45 18 -20 34 -39 34 -43 0 -4 18 -12 41 -18 22 -6 47 -14 55 -17 8 -3 14
1 14 11 0 15 -17 21 -48 17 -15 -2 -42 17 -42 30 0 5 12 4 26 -1 14 -6 39 -10
55 -10 17 0 32 -6 35 -15 3 -8 15 -17 25 -20 14 -5 18 -12 14 -26 -5 -14 -2
-19 12 -19 11 0 24 5 31 12 9 9 19 7 44 -6 34 -18 85 -19 81 -1 -1 6 -10 12
-20 14 -10 1 -26 10 -35 18 -14 13 -21 13 -33 3 -22 -18 -62 -4 -69 25 -5 21
-14 25 -56 31 -72 10 -72 24 0 23 33 -1 62 0 64 2 1 2 -1 15 -5 29 -6 22 -7
23 -8 4 -1 -18 -5 -21 -30 -15 -16 3 -39 18 -51 34 -14 18 -31 27 -49 27 -33
0 -42 7 -34 26 8 21 63 18 63 -3 1 -17 2 -16 15 1 18 24 13 32 -26 40 -22 4
-35 2 -43 -9 -10 -13 -17 -13 -64 5 -65 25 -84 26 -75 3z m113 -33 c0 -5 -4
-10 -10 -10 -5 0 -10 5 -10 10 0 6 5 10 10 10 6 0 10 -4 10 -10z m0 -34 c0 -3
-4 -8 -10 -11 -5 -3 -10 -1 -10 4 0 6 5 11 10 11 6 0 10 -2 10 -4z m55 -66 c3
-5 -1 -10 -9 -10 -9 0 -16 5 -16 10 0 6 4 10 9 10 6 0 13 -4 16 -10z"/>
<path d="M3406 1229 c19 -21 19 -21 -1 -18 -11 2 -36 -7 -55 -19 -19 -12 -43
-22 -52 -22 -12 0 -18 -8 -18 -25 0 -19 10 -29 40 -45 46 -23 57 -25 41 -7 -9
11 -3 16 28 25 53 16 59 15 84 -14 24 -27 107 -47 107 -25 0 6 9 11 20 11 29
0 24 -17 -10 -35 -16 -9 -30 -22 -30 -30 0 -23 16 -18 34 10 18 28 41 33 50
10 6 -17 36 -21 36 -5 0 6 -4 10 -10 10 -5 0 -14 9 -20 20 -8 16 -8 24 4 35 8
8 19 15 25 15 6 0 11 5 11 10 0 12 -6 13 -29 0 -25 -13 -65 15 -58 42 5 17 3
17 -11 6 -9 -7 -20 -17 -24 -23 -5 -7 -14 -6 -26 2 -12 7 -23 8 -29 2 -6 -6
-24 -1 -49 11 -33 18 -35 20 -11 15 24 -5 28 -3 25 12 -2 10 -14 19 -26 21
-16 2 -22 8 -18 18 4 10 -2 14 -21 14 -26 0 -26 0 -7 -21z m14 -58 c0 -8 -81
-51 -95 -51 -3 0 -5 6 -5 13 0 7 19 20 43 29 52 19 57 20 57 9z m85 -51 c3 -5
1 -10 -4 -10 -6 0 -11 5 -11 10 0 6 2 10 4 10 3 0 8 -4 11 -10z"/>
<path d="M3915 1230 c3 -5 8 -10 11 -10 2 0 4 5 4 10 0 6 -5 10 -11 10 -5 0
-7 -4 -4 -10z"/>
<path d="M4245 1230 c3 -5 8 -10 11 -10 2 0 4 5 4 10 0 6 -5 10 -11 10 -5 0
-7 -4 -4 -10z"/>
<path d="M4760 1206 c0 -25 12 -46 26 -46 8 0 14 5 14 10 0 6 -4 10 -10 10 -5
0 -10 6 -10 14 0 8 -4 18 -10 21 -5 3 -10 0 -10 -9z"/>
<path d="M3747 1203 c-11 -11 14 -33 38 -33 33 0 37 12 9 27 -30 15 -38 16
-47 6z"/>
<path d="M4210 1196 c0 -2 7 -6 15 -10 8 -3 15 -1 15 4 0 6 -7 10 -15 10 -8 0
-15 -2 -15 -4z"/>
<path d="M4881 1189 c-13 -5 -32 -7 -42 -4 -11 4 -19 2 -19 -5 0 -6 6 -12 13
-14 16 -4 68 -22 90 -31 10 -4 17 -3 17 4 0 7 -7 14 -15 16 -49 16 -51 18 -25
24 14 4 20 10 15 13 -6 3 -21 2 -34 -3z"/>
<path d="M3659 1173 c-13 -16 -12 -17 4 -4 16 13 21 21 13 21 -2 0 -10 -8 -17
-17z"/>
<path d="M4465 1181 c-6 -10 9 -19 63 -35 16 -5 22 -3 22 8 0 18 -6 22 -47 30
-18 4 -34 3 -38 -3z"/>
<path d="M4090 1171 c0 -5 6 -14 14 -20 16 -13 32 2 21 19 -8 12 -35 13 -35 1z"/>
<path d="M4974 1168 c-4 -6 0 -16 9 -23 21 -15 22 -25 2 -25 -8 0 -15 -4 -15
-10 0 -13 6 -13 33 1 39 21 52 61 17 52 -11 -3 -20 0 -20 6 0 14 -17 14 -26
-1z"/>
<path d="M3864 1150 c-42 -9 -56 -19 -52 -37 3 -14 77 -47 86 -38 9 8 -10 25
-28 25 -24 0 -36 20 -19 31 23 14 59 11 59 -6 0 -8 8 -15 18 -15 18 0 52 -33
52 -51 0 -6 14 -1 30 11 17 12 29 17 28 12 -5 -17 6 -17 32 1 19 13 22 19 12
29 -7 7 -12 20 -12 31 0 10 -5 15 -11 11 -6 -3 -8 -17 -5 -30 6 -24 -7 -33
-19 -14 -4 6 -10 8 -14 6 -4 -3 -7 4 -7 14 1 11 -2 19 -6 20 -5 0 -8 -3 -8 -7
-1 -16 -53 -23 -64 -9 -16 19 -37 24 -72 16z"/>
<path d="M4165 1140 c-18 -7 -18 -9 -3 -15 10 -4 23 -5 30 -3 14 5 48 -22 48
-38 0 -6 10 -14 23 -18 16 -4 27 1 40 19 10 14 28 25 38 25 11 0 17 5 14 10
-4 6 -10 8 -15 5 -4 -3 -27 2 -50 10 -46 16 -94 18 -125 5z m117 -32 c-9 -9
-15 -9 -24 0 -9 9 -7 12 12 12 19 0 21 -3 12 -12z"/>
<path d="M3705 1120 c-8 -13 5 -13 25 0 13 8 13 10 -2 10 -9 0 -20 -4 -23 -10z"/>
<path d="M3690 1080 c14 -10 27 -17 29 -14 6 5 -31 33 -44 33 -5 1 1 -8 15
-19z"/>
<path d="M4140 1096 c0 -2 7 -6 15 -10 8 -3 15 -1 15 4 0 6 -7 10 -15 10 -8 0
-15 -2 -15 -4z"/>
<path d="M4940 1094 c0 -6 11 -16 25 -22 32 -15 35 -15 35 -2 0 6 -8 10 -18
10 -10 0 -23 5 -30 12 -7 7 -12 8 -12 2z"/>
<path d="M5080 1091 c0 -5 -10 -11 -22 -14 -12 -4 -20 -8 -17 -11 3 -3 22 1
42 8 20 7 34 16 30 19 -9 10 -33 9 -33 -2z"/>
<path d="M3773 1052 c-13 -2 -23 -10 -23 -19 0 -11 -7 -14 -27 -9 l-28 6 29
-16 c23 -13 30 -14 37 -3 6 10 12 9 28 -5 15 -14 30 -17 57 -13 32 5 36 4 31
-13 -3 -11 1 -21 9 -24 9 -3 14 2 14 14 0 20 17 25 63 22 9 -1 17 3 17 9 0 5
6 9 13 8 12 -2 56 7 87 18 12 4 11 7 -5 13 -12 4 -34 2 -54 -6 -38 -16 -89
-18 -111 -4 -9 5 -19 5 -26 -1 -8 -7 -19 -7 -33 0 -44 23 -57 26 -78 23z"/>
<path d="M4130 1044 c0 -11 5 -14 16 -10 9 3 24 6 35 6 10 0 19 5 19 10 0 6
-16 10 -35 10 -25 0 -35 -4 -35 -16z"/>
<path d="M4858 1053 c7 -3 16 -2 19 1 4 3 -2 6 -13 5 -11 0 -14 -3 -6 -6z"/>
<path d="M5030 1023 c-13 -15 -12 -16 4 -10 10 4 22 7 27 7 6 0 7 5 4 10 -9
14 -18 12 -35 -7z"/>
<path d="M3380 1020 c0 -5 -6 -10 -14 -10 -20 0 -28 -14 -20 -35 6 -14 11 -12
35 11 16 15 26 31 23 36 -7 11 -24 10 -24 -2z"/>
<path d="M3515 1010 c-10 -16 4 -30 31 -30 29 0 31 15 5 30 -24 12 -28 13 -36
0z"/>
<path d="M4140 1004 c0 -10 -6 -14 -15 -10 -8 3 -15 1 -15 -3 0 -5 14 -14 32
-20 24 -9 34 -8 40 1 6 10 10 10 18 -2 5 -8 10 -10 10 -5 0 6 -5 17 -11 25 -8
11 -12 12 -16 3 -8 -20 -23 -15 -23 7 0 11 -4 20 -10 20 -5 0 -10 -7 -10 -16z"/>
<path d="M4670 1000 c0 -5 7 -10 16 -10 8 0 12 5 9 10 -3 6 -10 10 -16 10 -5
0 -9 -4 -9 -10z"/>
<path d="M3400 970 c0 -5 5 -10 10 -10 6 0 10 5 10 10 0 6 -4 10 -10 10 -5 0
-10 -4 -10 -10z"/>
<path d="M3950 972 c0 -5 14 -15 32 -21 18 -6 42 -21 55 -33 35 -32 41 -12 7
22 -29 30 -94 52 -94 32z"/>
<path d="M4335 970 c-7 -11 56 -60 77 -60 8 0 18 -3 22 -7 4 -4 23 -8 44 -9
20 0 38 -6 39 -11 2 -6 12 -9 23 -6 12 3 20 -1 23 -14 4 -15 5 -14 6 5 1 17 7
22 29 22 15 0 33 -5 39 -11 16 -16 33 -2 33 26 0 17 6 25 22 27 34 5 34 28 0
28 -17 0 -32 4 -34 9 -1 5 -25 -2 -53 -15 -52 -24 -94 -26 -132 -6 -12 7 -31
12 -42 12 -11 0 -22 4 -25 8 -7 12 -64 13 -71 2z"/>
<path d="M5015 970 c3 -5 11 -10 16 -10 6 0 7 5 4 10 -3 6 -11 10 -16 10 -6 0
-7 -4 -4 -10z"/>
<path d="M3440 960 c0 -5 5 -10 10 -10 6 0 10 5 10 10 0 6 -4 10 -10 10 -5 0
-10 -4 -10 -10z"/>
<path d="M3480 953 c0 -14 83 -24 95 -12 5 5 1 9 -12 9 -11 0 -35 3 -52 6 -18
4 -31 2 -31 -3z"/>
<path d="M3685 950 c3 -5 8 -10 11 -10 2 0 4 5 4 10 0 6 -5 10 -11 10 -5 0 -7
-4 -4 -10z"/>
<path d="M3910 941 c0 -12 28 -22 35 -12 3 5 -2 12 -11 15 -21 8 -24 8 -24 -3z"/>
<path d="M3370 930 c0 -5 4 -10 9 -10 5 0 18 -3 28 -7 16 -6 16 -5 4 10 -15
19 -41 23 -41 7z"/>
<path d="M3610 935 c0 -3 5 -14 12 -25 18 -28 3 -35 -42 -20 -22 7 -43 11 -46
7 -10 -10 6 -27 25 -27 10 0 24 -7 31 -15 7 -8 9 -15 4 -15 -5 0 2 -7 14 -16
26 -18 57 -11 48 11 -4 13 -2 13 14 5 10 -5 26 -7 36 -3 13 5 16 3 11 -10 -4
-10 6 -29 27 -51 36 -40 65 -50 44 -16 -7 11 -18 20 -24 20 -13 0 -24 22 -24
46 0 15 18 14 65 -5 82 -34 79 -33 65 -17 -10 13 -10 16 2 16 8 0 18 -4 23 -9
6 -5 37 -18 69 -29 33 -10 62 -24 63 -29 8 -23 -34 -22 -82 1 -27 14 -51 23
-52 22 -11 -11 -31 -76 -23 -76 5 0 10 9 10 19 0 10 7 22 16 25 24 9 26 8 14
-14 -6 -11 -8 -25 -4 -31 3 -6 -1 -18 -9 -27 -9 -9 -32 -35 -51 -57 l-35 -40
-30 34 c-17 19 -33 32 -37 29 -6 -6 35 -98 44 -98 3 0 20 16 38 35 32 35 64
46 64 22 0 -20 -21 -37 -46 -37 -19 0 -23 -5 -22 -30 1 -36 11 -38 43 -6 13
13 39 29 57 35 43 14 126 10 140 -6 6 -7 17 -13 24 -13 10 0 14 -13 14 -40 0
-47 -24 -100 -45 -100 -8 0 -23 -8 -34 -19 -16 -16 -26 -17 -71 -10 -29 4 -60
15 -70 24 -23 21 -40 19 -40 -6 0 -13 8 -23 20 -26 14 -4 19 -11 15 -23 -5
-14 3 -21 32 -31 21 -6 59 -23 84 -36 40 -20 48 -31 63 -74 9 -28 16 -58 16
-65 0 -18 14 -18 30 1 17 21 31 19 58 -9 25 -27 28 -46 10 -64 -9 -9 -8 -12 5
-12 9 0 17 5 17 10 0 15 33 12 58 -6 24 -16 42 -12 42 12 0 8 6 14 14 14 14 0
52 49 48 63 -1 4 3 7 8 7 6 0 10 -4 10 -10 0 -17 19 -11 30 9 13 25 -16 155
-42 190 -10 13 -18 29 -18 37 0 7 -14 16 -32 19 -28 7 -30 9 -15 20 24 17 21
25 -7 25 -14 0 -28 5 -31 10 -3 6 -12 10 -18 10 -7 0 -4 -7 6 -14 9 -7 17 -18
17 -25 0 -6 17 -28 38 -49 32 -32 73 -115 72 -147 0 -5 -21 -32 -46 -60 -38
-42 -51 -49 -85 -51 -37 -2 -39 -1 -25 14 13 16 12 17 -17 19 -18 2 -37 9 -43
18 -14 18 -31 19 -37 3 -3 -9 -8 -10 -15 -3 -15 14 6 83 33 112 38 41 47 54
40 61 -3 3 -9 2 -13 -4 -7 -11 -62 -28 -62 -19 0 2 16 11 35 19 31 13 35 19
29 41 -6 25 10 37 19 13 2 -7 8 -10 12 -5 5 4 -2 18 -15 32 -19 21 -21 25 -7
25 20 0 23 16 5 22 -10 4 -10 10 0 33 12 25 11 27 -6 23 -12 -3 -22 3 -29 18
-9 19 -8 24 2 24 7 0 15 -5 17 -12 3 -7 31 -12 74 -13 38 -1 80 -5 94 -10 34
-11 16 7 -34 34 -23 12 -44 17 -50 12 -17 -13 -69 -8 -74 8 -3 9 2 11 17 6 12
-4 21 -2 21 4 0 6 -4 11 -8 11 -5 0 -18 10 -31 21 -20 19 -26 20 -49 8 -15 -7
-34 -19 -43 -27 -15 -11 -19 -10 -31 6 -10 15 -21 19 -41 15 -15 -3 -27 -10
-27 -15 0 -5 -5 -6 -10 -3 -8 5 -8 11 0 20 6 7 8 24 5 38 -5 20 -2 28 15 37
19 10 25 8 43 -11 12 -13 20 -33 19 -46 -4 -26 19 -31 37 -9 9 11 7 19 -14 40
-32 32 -33 52 0 30 14 -9 32 -13 45 -9 14 4 22 1 26 -10 5 -13 9 -14 15 -4 5
8 0 18 -12 27 -33 23 -21 32 40 29 66 -2 76 2 66 32 -9 30 -84 20 -127 -16 -9
-8 -27 -13 -40 -10 l-23 4 23 8 c12 4 22 11 22 16 0 13 -44 11 -58 -3 -9 -9
-12 -8 -12 6 0 12 -5 16 -14 13 -19 -8 -96 23 -96 37 0 6 11 24 25 39 37 39 8
35 -56 -10 l-53 -36 -14 21 c-8 12 -23 22 -34 22 -11 0 -29 5 -40 11 -18 10
-20 9 -14 -6 5 -13 2 -16 -10 -11 -8 3 -19 6 -24 6 -4 0 -10 9 -13 20 -3 11
-12 20 -20 20 -8 0 -17 9 -20 20 -4 17 -47 31 -47 15z m352 -245 c-4 -31 -17
-40 -25 -17 -5 14 10 47 22 47 4 0 6 -13 3 -30z m158 -306 c0 -13 -4 -24 -10
-24 -5 0 -10 14 -10 31 0 17 4 28 10 24 6 -3 10 -17 10 -31z m-40 -18 c0 -3
-4 -8 -10 -11 -5 -3 -10 -1 -10 4 0 6 5 11 10 11 6 0 10 -2 10 -4z m-45 -56
c3 -5 -3 -10 -14 -10 -12 0 -21 5 -21 10 0 6 6 10 14 10 8 0 18 -4 21 -10z
m45 -31 c0 -5 -4 -9 -10 -9 -5 0 -10 7 -10 16 0 8 5 12 10 9 6 -3 10 -10 10
-16z"/>
<path d="M4112 929 c2 -6 7 -10 11 -10 4 1 15 1 25 1 14 0 15 2 2 10 -20 13
-43 13 -38 -1z"/>
<path d="M4220 925 c0 -9 6 -12 15 -9 8 4 12 10 9 15 -8 14 -24 10 -24 -6z"/>
<path d="M3480 920 c0 -5 5 -10 11 -10 5 0 7 5 4 10 -3 6 -8 10 -11 10 -2 0
-4 -4 -4 -10z"/>
<path d="M4181 906 c-9 -10 -21 -12 -49 -5 -39 9 -48 6 -37 -10 3 -6 26 -11
50 -11 30 0 47 -5 53 -16 7 -13 11 -14 17 -4 5 8 1 16 -8 22 -9 5 -14 15 -11
23 8 19 0 19 -15 1z"/>
<path d="M3850 892 c0 -14 6 -22 16 -22 14 0 15 3 3 18 -7 9 -15 19 -16 21 -2
2 -3 -5 -3 -17z"/>
<path d="M4256 894 c-17 -12 -17 -14 -4 -14 9 0 20 5 23 11 11 17 2 18 -19 3z"/>
<path d="M4294 864 c-17 -14 -17 -15 -1 -10 10 3 25 6 33 6 9 0 12 5 9 10 -9
14 -18 13 -41 -6z"/>
<path d="M4775 870 c-4 -7 -1 -16 6 -21 19 -12 72 -11 64 1 -3 6 -14 10 -24
10 -9 0 -22 5 -28 11 -8 8 -13 7 -18 -1z"/>
<path d="M4910 870 c0 -5 7 -10 15 -10 8 0 15 5 15 10 0 6 -7 10 -15 10 -8 0
-15 -4 -15 -10z"/>
<path d="M4090 860 c20 -13 33 -13 25 0 -3 6 -14 10 -23 10 -15 0 -15 -2 -2
-10z"/>
<path d="M4369 856 c7 -9 25 -16 40 -16 29 1 17 11 -29 25 -22 7 -23 6 -11 -9z"/>
<path d="M3423 853 c-7 -2 -13 -11 -13 -19 0 -13 10 -17 70 -27 14 -2 33 -8
44 -12 13 -6 17 -4 15 4 -3 7 -22 19 -44 27 -22 7 -41 18 -43 24 -4 11 -10 11
-29 3z"/>
<path d="M3347 843 c-15 -14 -6 -23 24 -23 27 0 29 2 15 15 -16 16 -29 19 -39
8z"/>
<path d="M4020 844 c0 -14 28 -29 55 -31 29 -1 29 -1 -9 18 -43 21 -46 22 -46
13z"/>
<path d="M4226 841 c-25 -5 -27 -8 -14 -19 18 -15 48 -6 48 14 0 8 -1 13 -2
13 -2 -1 -16 -4 -32 -8z"/>
<path d="M4890 840 c0 -5 5 -10 10 -10 6 0 10 5 10 10 0 6 -4 10 -10 10 -5 0
-10 -4 -10 -10z"/>
<path d="M4288 813 c7 -3 16 -2 19 1 4 3 -2 6 -13 5 -11 0 -14 -3 -6 -6z"/>
<path d="M4580 810 c8 -5 24 -9 35 -9 l20 0 -20 9 c-11 5 -27 9 -35 9 -13 1
-13 0 0 -9z"/>
<path d="M4333 803 c4 -3 7 -10 7 -18 0 -12 42 -25 81 -25 34 0 20 16 -23 27
-24 7 -50 13 -58 16 -8 2 -12 2 -7 0z"/>
<path d="M3337 793 c-25 -25 27 -32 59 -8 18 13 17 14 -17 15 -20 0 -39 -3
-42 -7z"/>
<path d="M3470 796 c0 -2 7 -9 15 -16 12 -10 15 -10 15 4 0 9 -7 16 -15 16 -8
0 -15 -2 -15 -4z"/>
<path d="M4980 790 c0 -5 5 -10 10 -10 6 0 10 5 10 10 0 6 -4 10 -10 10 -5 0
-10 -4 -10 -10z"/>
<path d="M4527 764 c-13 -14 5 -24 42 -24 22 0 44 6 51 15 11 13 6 15 -37 15
-27 0 -53 -3 -56 -6z"/>
<path d="M3325 751 c-2 -4 0 -21 5 -37 4 -16 9 -21 9 -11 1 23 14 21 49 -8 37
-31 38 -31 37 1 0 22 -8 29 -48 44 -26 10 -49 15 -52 11z"/>
<path d="M3600 750 c0 -5 5 -10 10 -10 6 0 10 5 10 10 0 6 -4 10 -10 10 -5 0
-10 -4 -10 -10z"/>
<path d="M4640 750 c0 -5 9 -10 20 -10 11 0 20 5 20 10 0 6 -9 10 -20 10 -11
0 -20 -4 -20 -10z"/>
<path d="M3495 736 c-17 -12 -15 -14 30 -24 59 -13 69 -7 36 19 -28 23 -41 24
-66 5z"/>
<path d="M4270 726 c0 -9 7 -16 16 -16 17 0 14 22 -4 28 -7 2 -12 -3 -12 -12z"/>
<path d="M4385 730 c4 -6 11 -8 16 -5 14 9 11 15 -7 15 -8 0 -12 -5 -9 -10z"/>
<path d="M4758 733 c6 -2 18 -2 25 0 6 3 1 5 -13 5 -14 0 -19 -2 -12 -5z"/>
<path d="M4460 710 c0 -5 7 -10 15 -10 8 0 15 5 15 10 0 6 -7 10 -15 10 -8 0
-15 -4 -15 -10z"/>
<path d="M4220 701 c0 -5 -10 -11 -22 -13 -20 -4 -19 -6 13 -20 20 -9 40 -21
43 -27 12 -18 54 -13 66 8 14 27 13 31 -10 31 -23 0 -26 -10 -8 -28 9 -9 8
-12 -5 -12 -9 0 -17 5 -17 10 0 6 -7 10 -15 10 -16 0 -38 34 -28 44 3 3 1 6
-5 6 -7 0 -12 -4 -12 -9z"/>
<path d="M3440 691 c0 -5 7 -12 16 -15 24 -9 28 -7 14 9 -14 17 -30 20 -30 6z"/>
<path d="M3778 683 c6 -2 18 -2 25 0 6 3 1 5 -13 5 -14 0 -19 -2 -12 -5z"/>
<path d="M3840 670 c0 -5 5 -10 10 -10 6 0 10 5 10 10 0 6 -4 10 -10 10 -5 0
-10 -4 -10 -10z"/>
<path d="M3337 654 c-12 -12 4 -24 33 -24 22 0 28 4 24 15 -6 15 -45 21 -57 9z"/>
<path d="M4440 630 c0 -5 5 -10 10 -10 6 0 10 5 10 10 0 6 -4 10 -10 10 -5 0
-10 -4 -10 -10z"/>
<path d="M4351 604 c0 -11 3 -14 6 -6 3 7 2 16 -1 19 -3 4 -6 -2 -5 -13z"/>
<path d="M4500 594 c0 -20 28 -43 53 -44 20 0 21 -4 7 -30 -8 -14 -5 -19 12
-24 13 -3 29 1 39 10 18 16 44 10 53 -12 9 -25 23 -15 23 16 0 23 -5 30 -17
28 -8 -2 -28 7 -43 19 -15 12 -36 19 -46 16 -10 -3 -22 0 -25 6 -4 5 -13 8
-21 4 -8 -3 -15 0 -15 5 0 6 8 13 18 15 10 3 6 5 -10 6 -20 1 -28 -4 -28 -15z"/>
<path d="M4400 585 c0 -8 5 -15 10 -15 6 0 10 7 10 15 0 8 -4 15 -10 15 -5 0
-10 -7 -10 -15z"/>
<path d="M4460 590 c0 -5 5 -10 10 -10 6 0 10 5 10 10 0 6 -4 10 -10 10 -5 0
-10 -4 -10 -10z"/>
<path d="M2763 563 c9 -2 23 -2 30 0 6 3 -1 5 -18 5 -16 0 -22 -2 -12 -5z"/>
<path d="M4366 555 c-3 -9 0 -15 9 -15 16 0 20 16 6 24 -5 3 -11 -1 -15 -9z"/>
<path d="M3705 529 c22 -18 28 -20 36 -8 9 15 -10 27 -45 28 -15 1 -14 -3 9
-20z"/>
<path d="M4720 530 c8 -5 29 -9 45 -9 29 1 29 1 5 9 -14 4 -34 8 -45 9 -16 1
-17 -1 -5 -9z"/>
<path d="M4402 519 c2 -7 18 -17 34 -20 16 -4 39 -11 52 -14 12 -4 22 -3 22 1
0 5 -17 14 -37 21 -21 6 -46 15 -57 19 -14 5 -17 3 -14 -7z"/>
<path d="M4245 490 c3 -5 8 -10 11 -10 2 0 4 5 4 10 0 6 -5 10 -11 10 -5 0 -7
-4 -4 -10z"/>
<path d="M4285 489 c-7 -10 10 -28 28 -29 12 0 8 17 -7 29 -11 9 -16 9 -21 0z"/>
<path d="M3787 474 c-3 -4 -2 -16 4 -26 13 -24 33 -10 23 15 -6 18 -16 21 -27
11z"/>
<path d="M4370 471 c0 -6 7 -11 15 -11 8 0 15 -4 15 -10 0 -14 -23 -13 -38 2
-22 22 -24 0 -3 -24 19 -19 24 -21 42 -10 17 11 25 8 61 -23 30 -25 51 -35 75
-35 20 0 32 4 28 10 -3 6 -15 10 -26 10 -14 0 -21 9 -25 30 -4 17 -11 30 -16
30 -5 0 -6 -9 -3 -20 8 -25 -1 -25 -42 -1 -18 12 -30 27 -30 38 2 13 -6 19
-25 21 -16 2 -28 -1 -28 -7z"/>
<path d="M4718 443 c7 -3 16 -2 19 1 4 3 -2 6 -13 5 -11 0 -14 -3 -6 -6z"/>
<path d="M3210 436 c0 -2 7 -7 16 -10 8 -3 12 -2 9 4 -6 10 -25 14 -25 6z"/>
<path d="M3308 383 c7 -3 16 -2 19 1 4 3 -2 6 -13 5 -11 0 -14 -3 -6 -6z"/>
<path d="M4214 359 c-19 -21 -18 -21 7 -9 20 9 32 9 48 1 14 -8 21 -8 21 -1 0
5 -7 10 -15 10 -8 0 -15 5 -15 10 0 17 -26 11 -46 -11z"/>
<path d="M4380 366 c-11 -14 -10 -19 6 -30 23 -17 35 -11 27 12 -6 15 -4 15
16 -2 16 -15 24 -17 33 -8 16 16 1 30 -38 38 -21 4 -34 1 -44 -10z"/>
<path d="M4658 353 c6 -2 18 -2 25 0 6 3 1 5 -13 5 -14 0 -19 -2 -12 -5z"/>
<path d="M3845 320 c3 -5 8 -10 11 -10 2 0 4 5 4 10 0 6 -5 10 -11 10 -5 0 -7
-4 -4 -10z"/>
<path d="M4537 293 c-15 -14 -6 -23 23 -23 32 0 40 14 14 24 -20 8 -29 8 -37
-1z"/>
<path d="M3030 270 c0 -11 7 -20 15 -20 8 0 15 -9 15 -20 0 -11 6 -20 14 -20
20 0 27 27 10 40 -8 7 -14 19 -14 26 0 8 -9 14 -20 14 -13 0 -20 -7 -20 -20z"/>
<path d="M3295 267 c-4 -10 -5 -21 -1 -24 10 -10 18 4 13 24 -4 17 -4 17 -12
0z"/>
<path d="M4436 264 c-8 -21 -8 -21 9 -28 11 -4 15 1 15 19 0 28 -15 33 -24 9z"/>
<path d="M4026 181 c-3 -5 1 -14 8 -20 12 -10 13 -8 9 8 -6 23 -9 25 -17 12z"/>
</g>
</svg>
